<svg width="331" height="173" viewBox="0 0 331 173" fill="none" xmlns="http://www.w3.org/2000/svg">
<g filter="url(#filter0_dd_2167_766)">
<rect x="51.0117" y="36.7285" width="259" height="85" rx="8.1619" fill="white" shape-rendering="crispEdges"/>
<path d="M124.223 63.3019H126.207L130.361 74.7285H128.566L127.774 72.5575H122.656L121.873 74.7285H120.069L124.223 63.3019ZM123.285 70.8598H127.145L125.211 65.5545L123.285 70.8598ZM137.546 62.4857H139.243V74.7285H137.546V73.5287C137.279 73.9531 136.931 74.2959 136.501 74.5571C136.071 74.8129 135.568 74.9407 134.991 74.9407C134.398 74.9407 133.843 74.8292 133.326 74.6061C132.809 74.383 132.352 74.0756 131.955 73.6838C131.563 73.2866 131.256 72.8295 131.033 72.3126C130.809 71.7957 130.698 71.2407 130.698 70.6476C130.698 70.0545 130.809 69.4995 131.033 68.9825C131.256 68.4602 131.563 68.0031 131.955 67.6113C132.352 67.2141 132.809 66.904 133.326 66.6809C133.843 66.4578 134.398 66.3462 134.991 66.3462C135.568 66.3462 136.071 66.4768 136.501 66.738C136.931 66.9938 137.279 67.3311 137.546 67.7501V62.4857ZM135.007 73.3002C135.486 73.3002 135.905 73.1832 136.264 72.9492C136.623 72.7098 136.901 72.3888 137.097 71.9861C137.298 71.5835 137.399 71.1373 137.399 70.6476C137.399 70.1524 137.298 69.7035 137.097 69.3009C136.896 68.8982 136.615 68.5799 136.256 68.3459C135.902 68.1065 135.486 67.9868 135.007 67.9868C134.534 67.9868 134.101 68.1065 133.71 68.3459C133.323 68.5853 133.013 68.9064 132.779 69.309C132.551 69.7117 132.436 70.1579 132.436 70.6476C132.436 71.1427 132.553 71.5916 132.787 71.9943C133.027 72.3915 133.34 72.7098 133.726 72.9492C134.118 73.1832 134.545 73.3002 135.007 73.3002ZM145.724 74.7285H143.545L140.566 66.5503H142.377L144.63 72.7697L146.891 66.5503H148.695L145.724 74.7285ZM149.95 66.5666H151.648V74.7285H149.95V66.5666ZM150.816 65.3831C150.554 65.3831 150.337 65.2988 150.163 65.1301C149.989 64.9614 149.901 64.7492 149.901 64.4935C149.901 64.2432 149.989 64.0337 150.163 63.865C150.337 63.6909 150.552 63.6038 150.807 63.6038C151.058 63.6038 151.27 63.6909 151.444 63.865C151.618 64.0337 151.705 64.2432 151.705 64.4935C151.705 64.7492 151.618 64.9614 151.444 65.1301C151.275 65.2988 151.066 65.3831 150.816 65.3831ZM155.938 74.8836C155.508 74.8564 155.089 74.7693 154.681 74.6224C154.273 74.4755 153.914 74.2769 153.604 74.0266C153.299 73.7709 153.07 73.4716 152.918 73.1288L154.363 72.5085C154.433 72.6554 154.556 72.7996 154.73 72.9411C154.91 73.0825 155.119 73.1995 155.358 73.292C155.598 73.3791 155.848 73.4226 156.109 73.4226C156.365 73.4226 156.602 73.3872 156.819 73.3165C157.043 73.2403 157.225 73.1261 157.366 72.9737C157.508 72.8214 157.579 72.6391 157.579 72.4269C157.579 72.1874 157.497 72.0024 157.334 71.8719C157.176 71.7358 156.977 71.6324 156.738 71.5617C156.498 71.491 156.259 71.4229 156.02 71.3577C155.486 71.2379 154.997 71.0747 154.55 70.8679C154.11 70.6557 153.759 70.3864 153.498 70.0599C153.236 69.728 153.106 69.3226 153.106 68.8438C153.106 68.3214 153.247 67.8698 153.53 67.4889C153.813 67.1026 154.183 66.806 154.64 66.5993C155.103 66.3925 155.595 66.2891 156.118 66.2891C156.77 66.2891 157.369 66.4279 157.913 66.7054C158.457 66.9829 158.874 67.3638 159.162 67.848L157.815 68.6479C157.734 68.4847 157.611 68.3377 157.448 68.2072C157.285 68.0766 157.1 67.9732 156.893 67.897C156.686 67.8154 156.471 67.7691 156.248 67.7583C155.971 67.7474 155.712 67.78 155.473 67.8562C155.239 67.9269 155.051 68.0412 154.91 68.199C154.768 68.3568 154.697 68.5581 154.697 68.803C154.697 69.0424 154.782 69.222 154.95 69.3417C155.119 69.4559 155.331 69.5484 155.587 69.6192C155.848 69.6899 156.115 69.7688 156.387 69.8559C156.871 70.0082 157.325 70.1959 157.75 70.419C158.174 70.6367 158.517 70.906 158.778 71.2271C159.039 71.5481 159.165 71.9399 159.154 72.4024C159.154 72.9139 158.999 73.3628 158.689 73.7491C158.384 74.1354 157.987 74.4292 157.497 74.6306C157.007 74.8319 156.488 74.9162 155.938 74.8836ZM164.031 74.9407C163.28 74.9407 162.595 74.7476 161.974 74.3612C161.359 73.9749 160.867 73.458 160.497 72.8105C160.132 72.1575 159.95 71.4365 159.95 70.6476C159.95 70.049 160.056 69.4913 160.268 68.9744C160.481 68.452 160.772 67.9949 161.142 67.6032C161.517 67.206 161.952 66.8958 162.448 66.6727C162.943 66.4496 163.471 66.3381 164.031 66.3381C164.782 66.3381 165.465 66.5312 166.08 66.9176C166.7 67.3039 167.192 67.8235 167.557 68.4765C167.927 69.1295 168.112 69.8531 168.112 70.6476C168.112 71.2407 168.006 71.7957 167.794 72.3126C167.581 72.8295 167.288 73.2866 166.912 73.6838C166.542 74.0756 166.11 74.383 165.614 74.6061C165.125 74.8292 164.597 74.9407 164.031 74.9407ZM164.031 73.243C164.483 73.243 164.888 73.1233 165.247 72.8839C165.606 72.6445 165.889 72.3289 166.096 71.9371C166.308 71.5399 166.414 71.1101 166.414 70.6476C166.414 70.1742 166.305 69.7389 166.088 69.3417C165.876 68.9444 165.59 68.6289 165.231 68.3949C164.872 68.1555 164.472 68.0358 164.031 68.0358C163.585 68.0358 163.179 68.1555 162.815 68.3949C162.456 68.6343 162.17 68.9526 161.958 69.3498C161.751 69.747 161.648 70.1796 161.648 70.6476C161.648 71.1318 161.757 71.5699 161.974 71.9616C162.192 72.3534 162.48 72.6663 162.839 72.9003C163.204 73.1288 163.601 73.243 164.031 73.243ZM169.431 74.7285V66.5666H171.128V67.4318C171.411 67.0944 171.759 66.8278 172.173 66.6319C172.587 66.436 173.033 66.3381 173.512 66.3381C173.816 66.3381 174.118 66.3789 174.418 66.4605L173.74 68.1745C173.528 68.0929 173.316 68.0521 173.103 68.0521C172.744 68.0521 172.415 68.1419 172.116 68.3214C171.817 68.4955 171.577 68.7322 171.398 69.0315C171.218 69.3308 171.128 69.6627 171.128 70.0273V74.7285H169.431ZM180.952 66.5666H182.764L178.291 78.8095H176.487L177.964 74.7285L175.034 66.5666H176.887L178.813 72.4024L180.952 66.5666ZM191.439 74.9407C190.775 74.9407 190.182 74.7802 189.659 74.4592C189.143 74.1381 188.734 73.7164 188.435 73.1941C188.141 72.6663 187.994 72.0977 187.994 71.4882C187.994 71.14 188.027 70.8353 188.092 70.5741C188.163 70.3129 188.28 70.0572 188.443 69.8069C188.612 69.5566 188.841 69.2764 189.129 68.9662C189.423 68.6561 189.793 68.2779 190.239 67.8317C189.989 67.576 189.779 67.3529 189.611 67.1624C189.442 66.972 189.309 66.7951 189.211 66.6319C189.113 66.4632 189.042 66.2891 188.998 66.1096C188.96 65.93 188.941 65.7259 188.941 65.4974C188.941 65.0186 189.056 64.5914 189.284 64.216C189.513 63.8351 189.817 63.5358 190.198 63.3182C190.579 63.0951 190.993 62.9835 191.439 62.9835C191.896 62.9835 192.315 63.0978 192.696 63.3263C193.077 63.5494 193.379 63.8514 193.602 64.2323C193.83 64.6078 193.944 65.0295 193.944 65.4974C193.944 65.7314 193.923 65.9409 193.879 66.1259C193.836 66.3054 193.762 66.4796 193.659 66.6482C193.561 66.8169 193.428 66.9965 193.259 67.1869C193.09 67.3719 192.883 67.5869 192.639 67.8317L195.103 70.2966L197.07 68.3296V70.7292L196.295 71.5046L198.327 73.5287L197.128 74.7285L195.103 72.7125C194.652 73.1642 194.268 73.5342 193.953 73.8225C193.642 74.1109 193.362 74.3367 193.112 74.5C192.862 74.6632 192.606 74.7775 192.345 74.8428C192.089 74.9081 191.787 74.9407 191.439 74.9407ZM191.439 73.243C191.656 73.243 191.841 73.2186 191.994 73.1696C192.152 73.1152 192.312 73.0254 192.475 72.9003C192.639 72.7697 192.829 72.5928 193.047 72.3697C193.27 72.1412 193.555 71.8501 193.904 71.4964L191.439 69.0315C191.08 69.3906 190.786 69.6845 190.557 69.913C190.329 70.1361 190.152 70.3265 190.027 70.4843C189.907 70.6421 189.823 70.7999 189.774 70.9577C189.725 71.1101 189.7 71.2924 189.7 71.5046C189.7 71.8365 189.779 72.133 189.937 72.3942C190.1 72.6554 190.312 72.8622 190.574 73.0145C190.84 73.1669 191.129 73.243 191.439 73.243ZM191.439 66.8686C191.716 66.5911 191.926 66.3843 192.067 66.2483C192.214 66.1068 192.312 65.9844 192.361 65.881C192.415 65.7722 192.443 65.6334 192.443 65.4648C192.443 65.1655 192.337 64.9261 192.124 64.7465C191.918 64.5615 191.689 64.469 191.439 64.469C191.167 64.469 190.933 64.567 190.737 64.7628C190.541 64.9587 190.443 65.1927 190.443 65.4648C190.443 65.6334 190.47 65.7749 190.525 65.8892C190.585 65.998 190.685 66.1232 190.827 66.2646C190.974 66.4061 191.178 66.6074 191.439 66.8686ZM207.952 74.9407C207.327 74.9407 206.725 74.8428 206.149 74.6469C205.572 74.451 205.068 74.1708 204.639 73.8062C204.209 73.4362 203.901 72.9982 203.716 72.4922L205.308 71.8963C205.4 72.1575 205.577 72.3915 205.838 72.5983C206.105 72.7996 206.421 72.9574 206.785 73.0717C207.155 73.1859 207.544 73.243 207.952 73.243C208.388 73.243 208.796 73.1723 209.177 73.0308C209.563 72.8894 209.873 72.6935 210.107 72.4432C210.346 72.1929 210.466 71.8991 210.466 71.5617C210.466 71.2135 210.341 70.9278 210.091 70.7047C209.846 70.4816 209.53 70.3048 209.144 70.1742C208.763 70.0436 208.366 69.9456 207.952 69.8803C207.152 69.7498 206.434 69.5593 205.798 69.309C205.166 69.0587 204.666 68.7078 204.296 68.2561C203.931 67.8045 203.749 67.2168 203.749 66.4932C203.749 65.813 203.942 65.2199 204.328 64.7139C204.72 64.2078 205.234 63.8161 205.871 63.5386C206.513 63.2556 207.207 63.1141 207.952 63.1141C208.567 63.1141 209.16 63.2121 209.732 63.408C210.308 63.5984 210.814 63.8786 211.25 64.2486C211.69 64.6132 212.006 65.0567 212.197 65.579L210.589 66.1585C210.496 65.8919 210.319 65.6606 210.058 65.4648C209.797 65.2634 209.481 65.1056 209.111 64.9914C208.747 64.8771 208.36 64.82 207.952 64.82C207.517 64.8145 207.109 64.8853 206.728 65.0322C206.353 65.1737 206.045 65.3695 205.806 65.6198C205.566 65.8701 205.447 66.1612 205.447 66.4932C205.447 66.9013 205.558 67.2114 205.781 67.4236C206.004 67.6358 206.304 67.7936 206.679 67.897C207.06 67.9949 207.484 68.0847 207.952 68.1663C208.703 68.2861 209.397 68.4847 210.034 68.7622C210.676 69.0397 211.19 69.4097 211.576 69.8722C211.968 70.3293 212.164 70.8924 212.164 71.5617C212.164 72.2364 211.968 72.8295 211.576 73.341C211.19 73.847 210.676 74.2415 210.034 74.5245C209.397 74.802 208.703 74.9407 207.952 74.9407ZM213.516 71.6678V66.5666H215.214V71.2515C215.214 71.6161 215.304 71.948 215.483 72.2473C215.663 72.5466 215.902 72.786 216.202 72.9655C216.501 73.1397 216.83 73.2267 217.189 73.2267C217.554 73.2267 217.883 73.1397 218.177 72.9655C218.476 72.786 218.713 72.5466 218.887 72.2473C219.066 71.948 219.156 71.6161 219.156 71.2515V66.5666H220.854L220.862 74.7285H219.164L219.156 73.847C218.879 74.1844 218.533 74.451 218.12 74.6469C217.706 74.8428 217.263 74.9407 216.789 74.9407C216.185 74.9407 215.636 74.7938 215.141 74.5C214.645 74.2062 214.251 73.8117 213.957 73.3165C213.663 72.8214 213.516 72.2718 213.516 71.6678ZM223.894 78.8095H222.196V66.5666H223.894V67.7664C224.166 67.3474 224.514 67.0074 224.938 66.7462C225.363 66.485 225.863 66.3544 226.44 66.3544C227.033 66.3544 227.588 66.466 228.105 66.689C228.628 66.9121 229.085 67.2223 229.476 67.6195C229.868 68.0113 230.176 68.4656 230.399 68.9825C230.622 69.4995 230.733 70.0545 230.733 70.6476C230.733 71.2407 230.622 71.7984 230.399 72.3208C230.176 72.8431 229.868 73.3029 229.476 73.7001C229.085 74.0919 228.628 74.3993 228.105 74.6224C227.588 74.8455 227.033 74.957 226.44 74.957C225.863 74.957 225.363 74.8265 224.938 74.5653C224.514 74.2987 224.166 73.9586 223.894 73.545V78.8095ZM226.424 67.9949C225.95 67.9949 225.534 68.1147 225.175 68.3541C224.816 68.5935 224.536 68.9145 224.334 69.3172C224.133 69.7144 224.032 70.1579 224.032 70.6476C224.032 71.1373 224.133 71.5835 224.334 71.9861C224.536 72.3888 224.816 72.7098 225.175 72.9492C225.534 73.1886 225.95 73.3083 226.424 73.3083C226.892 73.3083 227.322 73.1914 227.713 72.9574C228.105 72.718 228.418 72.3969 228.652 71.9943C228.886 71.5916 229.003 71.1427 229.003 70.6476C229.003 70.1633 228.886 69.7198 228.652 69.3172C228.424 68.9145 228.113 68.5935 227.722 68.3541C227.33 68.1147 226.897 67.9949 226.424 67.9949ZM233.761 78.8095H232.064V66.5666H233.761V67.7664C234.033 67.3474 234.382 67.0074 234.806 66.7462C235.23 66.485 235.731 66.3544 236.308 66.3544C236.901 66.3544 237.456 66.466 237.973 66.689C238.495 66.9121 238.952 67.2223 239.344 67.6195C239.736 68.0113 240.043 68.4656 240.266 68.9825C240.489 69.4995 240.601 70.0545 240.601 70.6476C240.601 71.2407 240.489 71.7984 240.266 72.3208C240.043 72.8431 239.736 73.3029 239.344 73.7001C238.952 74.0919 238.495 74.3993 237.973 74.6224C237.456 74.8455 236.901 74.957 236.308 74.957C235.731 74.957 235.23 74.8265 234.806 74.5653C234.382 74.2987 234.033 73.9586 233.761 73.545V78.8095ZM236.291 67.9949C235.818 67.9949 235.402 68.1147 235.043 68.3541C234.684 68.5935 234.403 68.9145 234.202 69.3172C234.001 69.7144 233.9 70.1579 233.9 70.6476C233.9 71.1373 234.001 71.5835 234.202 71.9861C234.403 72.3888 234.684 72.7098 235.043 72.9492C235.402 73.1886 235.818 73.3083 236.291 73.3083C236.759 73.3083 237.189 73.1914 237.581 72.9574C237.973 72.718 238.286 72.3969 238.52 71.9943C238.754 71.5916 238.871 71.1427 238.871 70.6476C238.871 70.1633 238.754 69.7198 238.52 69.3172C238.291 68.9145 237.981 68.5935 237.589 68.3541C237.197 68.1147 236.765 67.9949 236.291 67.9949ZM245.507 74.9407C244.756 74.9407 244.07 74.7476 243.45 74.3612C242.835 73.9749 242.342 73.458 241.972 72.8105C241.608 72.1575 241.426 71.4365 241.426 70.6476C241.426 70.049 241.532 69.4913 241.744 68.9744C241.956 68.452 242.247 67.9949 242.617 67.6032C242.993 67.206 243.428 66.8958 243.923 66.6727C244.418 66.4496 244.946 66.3381 245.507 66.3381C246.257 66.3381 246.94 66.5312 247.555 66.9176C248.175 67.3039 248.668 67.8235 249.032 68.4765C249.402 69.1295 249.587 69.8531 249.587 70.6476C249.587 71.2407 249.481 71.7957 249.269 72.3126C249.057 72.8295 248.763 73.2866 248.388 73.6838C248.018 74.0756 247.585 74.383 247.09 74.6061C246.6 74.8292 246.072 74.9407 245.507 74.9407ZM245.507 73.243C245.958 73.243 246.364 73.1233 246.723 72.8839C247.082 72.6445 247.365 72.3289 247.571 71.9371C247.784 71.5399 247.89 71.1101 247.89 70.6476C247.89 70.1742 247.781 69.7389 247.563 69.3417C247.351 68.9444 247.065 68.6289 246.706 68.3949C246.347 68.1555 245.947 68.0358 245.507 68.0358C245.06 68.0358 244.655 68.1555 244.29 68.3949C243.931 68.6343 243.646 68.9526 243.433 69.3498C243.227 69.747 243.123 70.1796 243.123 70.6476C243.123 71.1318 243.232 71.5699 243.45 71.9616C243.667 72.3534 243.956 72.6663 244.315 72.9003C244.679 73.1288 245.077 73.243 245.507 73.243ZM250.906 74.7285V66.5666H252.604V67.4318C252.887 67.0944 253.235 66.8278 253.649 66.6319C254.062 66.436 254.508 66.3381 254.987 66.3381C255.292 66.3381 255.594 66.3789 255.893 66.4605L255.216 68.1745C255.003 68.0929 254.791 68.0521 254.579 68.0521C254.22 68.0521 253.891 68.1419 253.591 68.3214C253.292 68.4955 253.053 68.7322 252.873 69.0315C252.694 69.3308 252.604 69.6627 252.604 70.0273V74.7285H250.906ZM261.353 68.2643H259.639L259.631 74.7285H257.933L257.941 68.2643H256.644V66.5666H257.941L257.933 64.0038H259.631L259.639 66.5666H261.353V68.2643Z" fill="#01081B"/>
<path d="M95.0077 80.2264C95.0077 87.7252 89.7586 91.4745 83.5196 93.6492C83.1929 93.7599 82.838 93.7546 82.5148 93.6342C76.2608 91.4745 71.0117 87.7252 71.0117 80.2264V69.7282C71.0117 69.3304 71.1697 68.949 71.451 68.6677C71.7322 68.3864 72.1137 68.2284 72.5115 68.2284C75.511 68.2284 79.2603 66.4287 81.8699 64.1491C82.1876 63.8777 82.5918 63.7285 83.0097 63.7285C83.4276 63.7285 83.8318 63.8777 84.1495 64.1491C86.7741 66.4437 90.5085 68.2284 93.5079 68.2284C93.9057 68.2284 94.2872 68.3864 94.5684 68.6677C94.8497 68.949 95.0077 69.3304 95.0077 69.7282V80.2264Z" stroke="#374ADE" stroke-width="3" stroke-linecap="round" stroke-linejoin="round"/>
<path d="M78.5107 78.727L81.5102 81.7265L87.5092 75.7275" stroke="#374ADE" stroke-width="3" stroke-linecap="round" stroke-linejoin="round"/>
<path d="M123.764 97.4442C123.18 97.4442 122.632 97.3362 122.12 97.1202C121.616 96.8962 121.172 96.5882 120.788 96.1962C120.412 95.8042 120.116 95.3482 119.9 94.8282C119.684 94.3082 119.576 93.7482 119.576 93.1482C119.576 92.5482 119.684 91.9922 119.9 91.4802C120.116 90.9602 120.416 90.5042 120.8 90.1122C121.184 89.7202 121.632 89.4162 122.144 89.2002C122.664 88.9842 123.228 88.8762 123.836 88.8762C124.5 88.8762 125.112 89.0042 125.672 89.2602C126.232 89.5162 126.7 89.8842 127.076 90.3642L126.296 91.1442C126.032 90.7602 125.684 90.4682 125.252 90.2682C124.82 90.0602 124.348 89.9562 123.836 89.9562C123.228 89.9562 122.688 90.0922 122.216 90.3642C121.752 90.6362 121.388 91.0122 121.124 91.4922C120.868 91.9722 120.74 92.5242 120.74 93.1482C120.74 93.7802 120.872 94.3362 121.136 94.8162C121.4 95.2962 121.756 95.6722 122.204 95.9442C122.652 96.2162 123.164 96.3522 123.74 96.3522C124.324 96.3522 124.828 96.2402 125.252 96.0162C125.684 95.7922 126.016 95.4642 126.248 95.0322C126.48 94.5922 126.596 94.0562 126.596 93.4242L127.28 93.9162H123.68V92.8842H127.76V93.0522C127.76 94.0202 127.588 94.8322 127.244 95.4882C126.908 96.1362 126.436 96.6242 125.828 96.9522C125.228 97.2802 124.54 97.4442 123.764 97.4442ZM131.377 97.4442C130.913 97.4442 130.493 97.3402 130.117 97.1322C129.749 96.9162 129.461 96.6202 129.253 96.2442C129.045 95.8682 128.941 95.4322 128.941 94.9362V91.6242H130.021V94.8882C130.021 95.2002 130.073 95.4722 130.177 95.7042C130.289 95.9282 130.449 96.1002 130.657 96.2202C130.865 96.3402 131.109 96.4002 131.389 96.4002C131.813 96.4002 132.145 96.2682 132.385 96.0042C132.625 95.7322 132.745 95.3602 132.745 94.8882V91.6242H133.825V94.9362C133.825 95.4322 133.721 95.8682 133.513 96.2442C133.305 96.6202 133.017 96.9162 132.649 97.1322C132.289 97.3402 131.865 97.4442 131.377 97.4442ZM135.284 97.3242V91.6242H136.364V97.3242H135.284ZM135.824 90.4842C135.624 90.4842 135.46 90.4202 135.332 90.2922C135.204 90.1562 135.14 89.9882 135.14 89.7882C135.14 89.5962 135.204 89.4362 135.332 89.3082C135.46 89.1722 135.624 89.1042 135.824 89.1042C136.024 89.1042 136.188 89.1722 136.316 89.3082C136.444 89.4362 136.508 89.5962 136.508 89.7882C136.508 89.9882 136.444 90.1562 136.316 90.2922C136.188 90.4202 136.024 90.4842 135.824 90.4842ZM140.368 97.4442C139.84 97.4442 139.368 97.3162 138.952 97.0602C138.536 96.7962 138.204 96.4402 137.956 95.9922C137.716 95.5442 137.596 95.0402 137.596 94.4802C137.596 93.9202 137.716 93.4162 137.956 92.9682C138.204 92.5202 138.536 92.1642 138.952 91.9002C139.368 91.6362 139.84 91.5042 140.368 91.5042C140.792 91.5042 141.176 91.5962 141.52 91.7802C141.864 91.9562 142.14 92.2042 142.348 92.5242C142.564 92.8362 142.684 93.2002 142.708 93.6162V95.3322C142.684 95.7402 142.568 96.1042 142.36 96.4242C142.152 96.7442 141.876 96.9962 141.532 97.1802C141.188 97.3562 140.8 97.4442 140.368 97.4442ZM140.548 96.4242C140.908 96.4242 141.22 96.3402 141.484 96.1722C141.756 96.0042 141.968 95.7762 142.12 95.4882C142.272 95.1922 142.348 94.8562 142.348 94.4802C142.348 94.0882 142.268 93.7482 142.108 93.4602C141.956 93.1722 141.744 92.9442 141.472 92.7762C141.208 92.6082 140.896 92.5242 140.536 92.5242C140.176 92.5242 139.86 92.6082 139.588 92.7762C139.316 92.9442 139.1 93.1762 138.94 93.4722C138.788 93.7602 138.712 94.0922 138.712 94.4682C138.712 94.8522 138.788 95.1922 138.94 95.4882C139.1 95.7762 139.316 96.0042 139.588 96.1722C139.868 96.3402 140.188 96.4242 140.548 96.4242ZM143.368 97.3242H142.276V95.7882L142.48 94.3962L142.276 93.0162V88.7562H143.368V97.3242ZM147.364 97.4442C146.844 97.4442 146.372 97.3162 145.948 97.0602C145.524 96.7962 145.188 96.4402 144.94 95.9922C144.7 95.5442 144.58 95.0402 144.58 94.4802C144.58 93.9202 144.7 93.4162 144.94 92.9682C145.188 92.5202 145.52 92.1642 145.936 91.9002C146.36 91.6362 146.836 91.5042 147.364 91.5042C147.796 91.5042 148.18 91.5962 148.516 91.7802C148.86 91.9562 149.136 92.2042 149.344 92.5242C149.552 92.8362 149.668 93.2002 149.692 93.6162V95.3322C149.668 95.7402 149.552 96.1042 149.344 96.4242C149.144 96.7442 148.872 96.9962 148.528 97.1802C148.192 97.3562 147.804 97.4442 147.364 97.4442ZM147.544 96.4242C148.08 96.4242 148.512 96.2442 148.84 95.8842C149.168 95.5162 149.332 95.0482 149.332 94.4802C149.332 94.0882 149.256 93.7482 149.104 93.4602C148.96 93.1642 148.752 92.9362 148.48 92.7762C148.208 92.6082 147.892 92.5242 147.532 92.5242C147.172 92.5242 146.852 92.6082 146.572 92.7762C146.3 92.9442 146.084 93.1762 145.924 93.4722C145.772 93.7602 145.696 94.0922 145.696 94.4682C145.696 94.8522 145.772 95.1922 145.924 95.4882C146.084 95.7762 146.304 96.0042 146.584 96.1722C146.864 96.3402 147.184 96.4242 147.544 96.4242ZM149.26 97.3242V95.7882L149.464 94.3962L149.26 93.0162V91.6242H150.352V97.3242H149.26ZM155.957 97.3242V94.0002C155.957 93.5682 155.821 93.2122 155.549 92.9322C155.277 92.6522 154.925 92.5122 154.493 92.5122C154.205 92.5122 153.949 92.5762 153.725 92.7042C153.501 92.8322 153.325 93.0082 153.197 93.2322C153.069 93.4562 153.005 93.7122 153.005 94.0002L152.561 93.7482C152.561 93.3162 152.657 92.9322 152.849 92.5962C153.041 92.2602 153.309 91.9962 153.653 91.8042C153.997 91.6042 154.385 91.5042 154.817 91.5042C155.249 91.5042 155.629 91.6122 155.957 91.8282C156.293 92.0442 156.557 92.3282 156.749 92.6802C156.941 93.0242 157.037 93.3922 157.037 93.7842V97.3242H155.957ZM151.925 97.3242V91.6242H153.005V97.3242H151.925ZM161.103 97.4442C160.543 97.4442 160.035 97.3122 159.579 97.0482C159.131 96.7842 158.775 96.4282 158.511 95.9802C158.255 95.5242 158.127 95.0202 158.127 94.4682C158.127 93.9082 158.255 93.4042 158.511 92.9562C158.775 92.5082 159.131 92.1562 159.579 91.9002C160.035 91.6362 160.543 91.5042 161.103 91.5042C161.543 91.5042 161.951 91.5882 162.327 91.7562C162.703 91.9162 163.027 92.1522 163.299 92.4642L162.579 93.1842C162.403 92.9762 162.187 92.8202 161.931 92.7162C161.683 92.6042 161.407 92.5482 161.103 92.5482C160.743 92.5482 160.423 92.6322 160.143 92.8002C159.863 92.9602 159.643 93.1842 159.483 93.4722C159.323 93.7602 159.243 94.0922 159.243 94.4682C159.243 94.8442 159.323 95.1762 159.483 95.4642C159.643 95.7522 159.863 95.9802 160.143 96.1482C160.423 96.3162 160.743 96.4002 161.103 96.4002C161.407 96.4002 161.683 96.3482 161.931 96.2442C162.187 96.1322 162.407 95.9722 162.591 95.7642L163.299 96.4842C163.035 96.7882 162.711 97.0242 162.327 97.1922C161.951 97.3602 161.543 97.4442 161.103 97.4442ZM166.893 97.4442C166.325 97.4442 165.813 97.3162 165.357 97.0602C164.901 96.7962 164.541 96.4402 164.277 95.9922C164.013 95.5442 163.881 95.0362 163.881 94.4682C163.881 93.9082 164.009 93.4042 164.265 92.9562C164.529 92.5082 164.881 92.1562 165.321 91.9002C165.769 91.6362 166.269 91.5042 166.821 91.5042C167.349 91.5042 167.813 91.6242 168.213 91.8642C168.621 92.1042 168.937 92.4362 169.161 92.8602C169.393 93.2842 169.509 93.7642 169.509 94.3002C169.509 94.3802 169.505 94.4682 169.497 94.5642C169.489 94.6522 169.473 94.7562 169.449 94.8762H164.637V93.9762H168.873L168.477 94.3242C168.477 93.9402 168.409 93.6162 168.273 93.3522C168.137 93.0802 167.945 92.8722 167.697 92.7282C167.449 92.5762 167.149 92.5002 166.797 92.5002C166.429 92.5002 166.105 92.5802 165.825 92.7402C165.545 92.9002 165.329 93.1242 165.177 93.4122C165.025 93.7002 164.949 94.0402 164.949 94.4322C164.949 94.8322 165.029 95.1842 165.189 95.4882C165.349 95.7842 165.577 96.0162 165.873 96.1842C166.169 96.3442 166.509 96.4242 166.893 96.4242C167.213 96.4242 167.505 96.3682 167.769 96.2562C168.041 96.1442 168.273 95.9762 168.465 95.7522L169.161 96.4602C168.889 96.7802 168.553 97.0242 168.153 97.1922C167.761 97.3602 167.341 97.4442 166.893 97.4442ZM173.999 97.3242V90.7722C173.999 90.3482 174.091 89.9802 174.275 89.6682C174.459 89.3482 174.711 89.0962 175.031 88.9122C175.359 88.7282 175.739 88.6362 176.171 88.6362C176.499 88.6362 176.783 88.6922 177.023 88.8042C177.263 88.9162 177.483 89.0802 177.683 89.2962L176.975 89.9922C176.871 89.8802 176.755 89.7962 176.627 89.7402C176.499 89.6762 176.343 89.6442 176.159 89.6442C175.815 89.6442 175.547 89.7442 175.355 89.9442C175.171 90.1442 175.079 90.4202 175.079 90.7722V97.3242H173.999ZM172.595 92.6082V91.6242H176.891V92.6082H172.595ZM177.765 97.3242V91.6242H178.845V97.3242H177.765ZM178.845 94.0722L178.437 93.8922C178.437 93.1642 178.605 92.5842 178.941 92.1522C179.277 91.7202 179.761 91.5042 180.393 91.5042C180.681 91.5042 180.941 91.5562 181.173 91.6602C181.405 91.7562 181.621 91.9202 181.821 92.1522L181.113 92.8842C180.993 92.7562 180.861 92.6642 180.717 92.6082C180.573 92.5522 180.405 92.5242 180.213 92.5242C179.813 92.5242 179.485 92.6522 179.229 92.9082C178.973 93.1642 178.845 93.5522 178.845 94.0722ZM184.998 97.4442C184.438 97.4442 183.934 97.3122 183.486 97.0482C183.038 96.7842 182.682 96.4282 182.418 95.9802C182.154 95.5242 182.022 95.0162 182.022 94.4562C182.022 93.9042 182.154 93.4082 182.418 92.9682C182.682 92.5202 183.038 92.1642 183.486 91.9002C183.934 91.6362 184.438 91.5042 184.998 91.5042C185.55 91.5042 186.05 91.6362 186.498 91.9002C186.954 92.1562 187.314 92.5082 187.578 92.9562C187.842 93.4042 187.974 93.9042 187.974 94.4562C187.974 95.0162 187.842 95.5242 187.578 95.9802C187.314 96.4282 186.954 96.7842 186.498 97.0482C186.05 97.3122 185.55 97.4442 184.998 97.4442ZM184.998 96.4002C185.358 96.4002 185.678 96.3162 185.958 96.1482C186.238 95.9802 186.458 95.7522 186.618 95.4642C186.778 95.1682 186.858 94.8322 186.858 94.4562C186.858 94.0882 186.774 93.7602 186.606 93.4722C186.446 93.1842 186.226 92.9602 185.946 92.8002C185.674 92.6322 185.358 92.5482 184.998 92.5482C184.638 92.5482 184.318 92.6322 184.038 92.8002C183.758 92.9602 183.538 93.1842 183.378 93.4722C183.218 93.7602 183.138 94.0882 183.138 94.4562C183.138 94.8322 183.218 95.1682 183.378 95.4642C183.538 95.7522 183.758 95.9802 184.038 96.1482C184.318 96.3162 184.638 96.4002 184.998 96.4002ZM189.19 97.3242V91.6242H190.27V97.3242H189.19ZM193.042 97.3242V93.8802C193.042 93.4562 192.91 93.1242 192.646 92.8842C192.39 92.6362 192.066 92.5122 191.674 92.5122C191.41 92.5122 191.174 92.5682 190.966 92.6802C190.758 92.7922 190.59 92.9482 190.462 93.1482C190.334 93.3482 190.27 93.5882 190.27 93.8682L189.826 93.6522C189.826 93.2202 189.918 92.8442 190.102 92.5242C190.294 92.2042 190.554 91.9562 190.882 91.7802C191.21 91.5962 191.578 91.5042 191.986 91.5042C192.386 91.5042 192.746 91.5922 193.066 91.7682C193.394 91.9442 193.65 92.1922 193.834 92.5122C194.026 92.8322 194.122 93.2122 194.122 93.6522V97.3242H193.042ZM196.894 97.3242V93.8802C196.894 93.4562 196.762 93.1242 196.498 92.8842C196.242 92.6362 195.922 92.5122 195.538 92.5122C195.274 92.5122 195.034 92.5682 194.818 92.6802C194.61 92.7922 194.442 92.9482 194.314 93.1482C194.186 93.3482 194.122 93.5882 194.122 93.8682L193.51 93.6522C193.534 93.2122 193.65 92.8362 193.858 92.5242C194.074 92.2042 194.35 91.9562 194.686 91.7802C195.022 91.5962 195.39 91.5042 195.79 91.5042C196.206 91.5042 196.578 91.5922 196.906 91.7682C197.234 91.9442 197.494 92.1922 197.686 92.5122C197.886 92.8322 197.986 93.2162 197.986 93.6642V97.3242H196.894ZM201.964 97.3242V91.6242H203.044V97.3242H201.964ZM202.504 90.4842C202.304 90.4842 202.14 90.4202 202.012 90.2922C201.884 90.1562 201.82 89.9882 201.82 89.7882C201.82 89.5962 201.884 89.4362 202.012 89.3082C202.14 89.1722 202.304 89.1042 202.504 89.1042C202.704 89.1042 202.868 89.1722 202.996 89.3082C203.124 89.4362 203.188 89.5962 203.188 89.7882C203.188 89.9882 203.124 90.1562 202.996 90.2922C202.868 90.4202 202.704 90.4842 202.504 90.4842ZM208.668 97.3242V94.0002C208.668 93.5682 208.532 93.2122 208.26 92.9322C207.988 92.6522 207.636 92.5122 207.204 92.5122C206.916 92.5122 206.66 92.5762 206.436 92.7042C206.212 92.8322 206.036 93.0082 205.908 93.2322C205.78 93.4562 205.716 93.7122 205.716 94.0002L205.272 93.7482C205.272 93.3162 205.368 92.9322 205.56 92.5962C205.752 92.2602 206.02 91.9962 206.364 91.8042C206.708 91.6042 207.096 91.5042 207.528 91.5042C207.96 91.5042 208.34 91.6122 208.668 91.8282C209.004 92.0442 209.268 92.3282 209.46 92.6802C209.652 93.0242 209.748 93.3922 209.748 93.7842V97.3242H208.668ZM204.636 97.3242V91.6242H205.716V97.3242H204.636ZM213.622 97.4442C213.094 97.4442 212.622 97.3162 212.206 97.0602C211.79 96.7962 211.458 96.4402 211.21 95.9922C210.97 95.5442 210.85 95.0402 210.85 94.4802C210.85 93.9202 210.97 93.4162 211.21 92.9682C211.458 92.5202 211.79 92.1642 212.206 91.9002C212.622 91.6362 213.094 91.5042 213.622 91.5042C214.046 91.5042 214.43 91.5962 214.774 91.7802C215.118 91.9562 215.394 92.2042 215.602 92.5242C215.818 92.8362 215.938 93.2002 215.962 93.6162V95.3322C215.938 95.7402 215.822 96.1042 215.614 96.4242C215.406 96.7442 215.13 96.9962 214.786 97.1802C214.442 97.3562 214.054 97.4442 213.622 97.4442ZM213.802 96.4242C214.162 96.4242 214.474 96.3402 214.738 96.1722C215.01 96.0042 215.222 95.7762 215.374 95.4882C215.526 95.1922 215.602 94.8562 215.602 94.4802C215.602 94.0882 215.522 93.7482 215.362 93.4602C215.21 93.1722 214.998 92.9442 214.726 92.7762C214.462 92.6082 214.15 92.5242 213.79 92.5242C213.43 92.5242 213.114 92.6082 212.842 92.7762C212.57 92.9442 212.354 93.1762 212.194 93.4722C212.042 93.7602 211.966 94.0922 211.966 94.4682C211.966 94.8522 212.042 95.1922 212.194 95.4882C212.354 95.7762 212.57 96.0042 212.842 96.1722C213.122 96.3402 213.442 96.4242 213.802 96.4242ZM216.622 97.3242H215.53V95.7882L215.734 94.3962L215.53 93.0162V88.7562H216.622V97.3242ZM220.486 97.4442C220.022 97.4442 219.602 97.3402 219.226 97.1322C218.858 96.9162 218.57 96.6202 218.362 96.2442C218.154 95.8682 218.05 95.4322 218.05 94.9362V91.6242H219.13V94.8882C219.13 95.2002 219.182 95.4722 219.286 95.7042C219.398 95.9282 219.558 96.1002 219.766 96.2202C219.974 96.3402 220.218 96.4002 220.498 96.4002C220.922 96.4002 221.254 96.2682 221.494 96.0042C221.734 95.7322 221.854 95.3602 221.854 94.8882V91.6242H222.934V94.9362C222.934 95.4322 222.83 95.8682 222.622 96.2442C222.414 96.6202 222.126 96.9162 221.758 97.1322C221.398 97.3402 220.974 97.4442 220.486 97.4442ZM226.194 97.4442C225.874 97.4442 225.57 97.4042 225.282 97.3242C225.002 97.2362 224.742 97.1162 224.502 96.9642C224.262 96.8042 224.054 96.6162 223.878 96.4002L224.574 95.7042C224.782 95.9602 225.022 96.1522 225.294 96.2802C225.566 96.4002 225.87 96.4602 226.206 96.4602C226.542 96.4602 226.802 96.4042 226.986 96.2922C227.17 96.1722 227.262 96.0082 227.262 95.8002C227.262 95.5922 227.186 95.4322 227.034 95.3202C226.89 95.2002 226.702 95.1042 226.47 95.0322C226.238 94.9522 225.99 94.8762 225.726 94.8042C225.47 94.7242 225.226 94.6242 224.994 94.5042C224.762 94.3842 224.57 94.2202 224.418 94.0122C224.274 93.8042 224.202 93.5282 224.202 93.1842C224.202 92.8402 224.286 92.5442 224.454 92.2962C224.622 92.0402 224.854 91.8442 225.15 91.7082C225.454 91.5722 225.818 91.5042 226.242 91.5042C226.69 91.5042 227.086 91.5842 227.43 91.7442C227.782 91.8962 228.07 92.1282 228.294 92.4402L227.598 93.1362C227.438 92.9282 227.238 92.7682 226.998 92.6562C226.766 92.5442 226.502 92.4882 226.206 92.4882C225.894 92.4882 225.654 92.5442 225.486 92.6562C225.326 92.7602 225.246 92.9082 225.246 93.1002C225.246 93.2922 225.318 93.4402 225.462 93.5442C225.606 93.6482 225.794 93.7362 226.026 93.8082C226.266 93.8802 226.514 93.9562 226.77 94.0362C227.026 94.1082 227.27 94.2082 227.502 94.3362C227.734 94.4642 227.922 94.6362 228.066 94.8522C228.218 95.0682 228.294 95.3522 228.294 95.7042C228.294 96.2402 228.102 96.6642 227.718 96.9762C227.342 97.2882 226.834 97.4442 226.194 97.4442ZM230.379 97.3242V89.2362H231.459V97.3242H230.379ZM228.975 92.6082V91.6242H232.863V92.6082H228.975ZM233.921 97.3242V91.6242H235.001V97.3242H233.921ZM235.001 94.0722L234.593 93.8922C234.593 93.1642 234.761 92.5842 235.097 92.1522C235.433 91.7202 235.917 91.5042 236.549 91.5042C236.837 91.5042 237.097 91.5562 237.329 91.6602C237.561 91.7562 237.777 91.9202 237.977 92.1522L237.269 92.8842C237.149 92.7562 237.017 92.6642 236.873 92.6082C236.729 92.5522 236.561 92.5242 236.369 92.5242C235.969 92.5242 235.641 92.6522 235.385 92.9082C235.129 93.1642 235.001 93.5522 235.001 94.0722ZM240.504 97.3722L238.032 91.6242H239.232L241.068 96.1242H240.684L242.616 91.6242H243.816L241.152 97.3722H240.504ZM238.872 99.7122L240.552 96.2682L241.152 97.3722L240.072 99.7122H238.872ZM244.374 94.7802V93.7602H248.322V94.7802H244.374ZM249.905 97.3242V88.7562H250.985V97.3242H249.905ZM255.205 97.4442C254.637 97.4442 254.125 97.3162 253.669 97.0602C253.213 96.7962 252.853 96.4402 252.589 95.9922C252.325 95.5442 252.193 95.0362 252.193 94.4682C252.193 93.9082 252.321 93.4042 252.577 92.9562C252.841 92.5082 253.193 92.1562 253.633 91.9002C254.081 91.6362 254.581 91.5042 255.133 91.5042C255.661 91.5042 256.125 91.6242 256.525 91.8642C256.933 92.1042 257.249 92.4362 257.473 92.8602C257.705 93.2842 257.821 93.7642 257.821 94.3002C257.821 94.3802 257.817 94.4682 257.809 94.5642C257.801 94.6522 257.785 94.7562 257.761 94.8762H252.949V93.9762H257.185L256.789 94.3242C256.789 93.9402 256.721 93.6162 256.585 93.3522C256.449 93.0802 256.257 92.8722 256.009 92.7282C255.761 92.5762 255.461 92.5002 255.109 92.5002C254.741 92.5002 254.417 92.5802 254.137 92.7402C253.857 92.9002 253.641 93.1242 253.489 93.4122C253.337 93.7002 253.261 94.0402 253.261 94.4322C253.261 94.8322 253.341 95.1842 253.501 95.4882C253.661 95.7842 253.889 96.0162 254.185 96.1842C254.481 96.3442 254.821 96.4242 255.205 96.4242C255.525 96.4242 255.817 96.3682 256.081 96.2562C256.353 96.1442 256.585 95.9762 256.777 95.7522L257.473 96.4602C257.201 96.7802 256.865 97.0242 256.465 97.1922C256.073 97.3602 255.653 97.4442 255.205 97.4442ZM261.423 97.4442C260.903 97.4442 260.431 97.3162 260.007 97.0602C259.583 96.7962 259.247 96.4402 258.999 95.9922C258.759 95.5442 258.639 95.0402 258.639 94.4802C258.639 93.9202 258.759 93.4162 258.999 92.9682C259.247 92.5202 259.579 92.1642 259.995 91.9002C260.419 91.6362 260.895 91.5042 261.423 91.5042C261.855 91.5042 262.239 91.5962 262.575 91.7802C262.919 91.9562 263.195 92.2042 263.403 92.5242C263.611 92.8362 263.727 93.2002 263.751 93.6162V95.3322C263.727 95.7402 263.611 96.1042 263.403 96.4242C263.203 96.7442 262.931 96.9962 262.587 97.1802C262.251 97.3562 261.863 97.4442 261.423 97.4442ZM261.603 96.4242C262.139 96.4242 262.571 96.2442 262.899 95.8842C263.227 95.5162 263.391 95.0482 263.391 94.4802C263.391 94.0882 263.315 93.7482 263.163 93.4602C263.019 93.1642 262.811 92.9362 262.539 92.7762C262.267 92.6082 261.951 92.5242 261.591 92.5242C261.231 92.5242 260.911 92.6082 260.631 92.7762C260.359 92.9442 260.143 93.1762 259.983 93.4722C259.831 93.7602 259.755 94.0922 259.755 94.4682C259.755 94.8522 259.831 95.1922 259.983 95.4882C260.143 95.7762 260.363 96.0042 260.643 96.1722C260.923 96.3402 261.243 96.4242 261.603 96.4242ZM263.319 97.3242V95.7882L263.523 94.3962L263.319 93.0162V91.6242H264.411V97.3242H263.319ZM268.395 97.4442C267.867 97.4442 267.395 97.3162 266.979 97.0602C266.563 96.7962 266.231 96.4402 265.983 95.9922C265.743 95.5442 265.623 95.0402 265.623 94.4802C265.623 93.9202 265.743 93.4162 265.983 92.9682C266.231 92.5202 266.563 92.1642 266.979 91.9002C267.395 91.6362 267.867 91.5042 268.395 91.5042C268.819 91.5042 269.203 91.5962 269.547 91.7802C269.891 91.9562 270.167 92.2042 270.375 92.5242C270.591 92.8362 270.711 93.2002 270.735 93.6162V95.3322C270.711 95.7402 270.595 96.1042 270.387 96.4242C270.179 96.7442 269.903 96.9962 269.559 97.1802C269.215 97.3562 268.827 97.4442 268.395 97.4442ZM268.575 96.4242C268.935 96.4242 269.247 96.3402 269.511 96.1722C269.783 96.0042 269.995 95.7762 270.147 95.4882C270.299 95.1922 270.375 94.8562 270.375 94.4802C270.375 94.0882 270.295 93.7482 270.135 93.4602C269.983 93.1722 269.771 92.9442 269.499 92.7762C269.235 92.6082 268.923 92.5242 268.563 92.5242C268.203 92.5242 267.887 92.6082 267.615 92.7762C267.343 92.9442 267.127 93.1762 266.967 93.4722C266.815 93.7602 266.739 94.0922 266.739 94.4682C266.739 94.8522 266.815 95.1922 266.967 95.4882C267.127 95.7762 267.343 96.0042 267.615 96.1722C267.895 96.3402 268.215 96.4242 268.575 96.4242ZM271.395 97.3242H270.303V95.7882L270.507 94.3962L270.303 93.0162V88.7562H271.395V97.3242ZM272.98 97.3242V91.6242H274.06V97.3242H272.98ZM273.52 90.4842C273.32 90.4842 273.156 90.4202 273.028 90.2922C272.9 90.1562 272.836 89.9882 272.836 89.7882C272.836 89.5962 272.9 89.4362 273.028 89.3082C273.156 89.1722 273.32 89.1042 273.52 89.1042C273.72 89.1042 273.884 89.1722 274.012 89.3082C274.14 89.4362 274.204 89.5962 274.204 89.7882C274.204 89.9882 274.14 90.1562 274.012 90.2922C273.884 90.4202 273.72 90.4842 273.52 90.4842ZM279.683 97.3242V94.0002C279.683 93.5682 279.547 93.2122 279.275 92.9322C279.003 92.6522 278.651 92.5122 278.219 92.5122C277.931 92.5122 277.675 92.5762 277.451 92.7042C277.227 92.8322 277.051 93.0082 276.923 93.2322C276.795 93.4562 276.731 93.7122 276.731 94.0002L276.287 93.7482C276.287 93.3162 276.383 92.9322 276.575 92.5962C276.767 92.2602 277.035 91.9962 277.379 91.8042C277.723 91.6042 278.111 91.5042 278.543 91.5042C278.975 91.5042 279.355 91.6122 279.683 91.8282C280.019 92.0442 280.283 92.3282 280.475 92.6802C280.667 93.0242 280.763 93.3922 280.763 93.7842V97.3242H279.683ZM275.651 97.3242V91.6242H276.731V97.3242H275.651ZM284.59 99.8322C284.006 99.8322 283.486 99.7242 283.03 99.5082C282.582 99.2922 282.222 98.9882 281.95 98.5962L282.646 97.8882C282.878 98.1842 283.154 98.4082 283.474 98.5602C283.794 98.7202 284.174 98.8002 284.614 98.8002C285.198 98.8002 285.658 98.6442 285.994 98.3322C286.338 98.0282 286.51 97.6162 286.51 97.0962V95.6802L286.702 94.3962L286.51 93.1242V91.6242H287.59V97.0962C287.59 97.6402 287.462 98.1162 287.206 98.5242C286.958 98.9322 286.606 99.2522 286.15 99.4842C285.702 99.7162 285.182 99.8322 284.59 99.8322ZM284.59 97.2282C284.07 97.2282 283.602 97.1042 283.186 96.8562C282.778 96.6082 282.454 96.2682 282.214 95.8362C281.974 95.3962 281.854 94.9042 281.854 94.3602C281.854 93.8162 281.974 93.3322 282.214 92.9082C282.454 92.4762 282.778 92.1362 283.186 91.8882C283.602 91.6322 284.07 91.5042 284.59 91.5042C285.038 91.5042 285.434 91.5922 285.778 91.7682C286.122 91.9442 286.394 92.1922 286.594 92.5122C286.802 92.8242 286.914 93.1922 286.93 93.6162V95.1282C286.906 95.5442 286.79 95.9122 286.582 96.2322C286.382 96.5442 286.11 96.7882 285.766 96.9642C285.422 97.1402 285.03 97.2282 284.59 97.2282ZM284.806 96.2082C285.158 96.2082 285.466 96.1322 285.73 95.9802C286.002 95.8282 286.21 95.6162 286.354 95.3442C286.498 95.0642 286.57 94.7402 286.57 94.3722C286.57 94.0042 286.494 93.6842 286.342 93.4122C286.198 93.1322 285.994 92.9162 285.73 92.7642C285.466 92.6042 285.154 92.5242 284.794 92.5242C284.434 92.5242 284.118 92.6042 283.846 92.7642C283.574 92.9162 283.358 93.1322 283.198 93.4122C283.046 93.6842 282.97 94.0002 282.97 94.3602C282.97 94.7202 283.046 95.0402 283.198 95.3202C283.358 95.6002 283.574 95.8202 283.846 95.9802C284.126 96.1322 284.446 96.2082 284.806 96.2082Z" fill="#4D525F"/>
</g>
<defs>
<filter id="filter0_dd_2167_766" x="-0.000148773" y="-2.86102e-05" width="330.417" height="172.74" filterUnits="userSpaceOnUse" color-interpolation-filters="sRGB">
<feFlood flood-opacity="0" result="BackgroundImageFix"/>
<feColorMatrix in="SourceAlpha" type="matrix" values="0 0 0 0 0 0 0 0 0 0 0 0 0 0 0 0 0 0 127 0" result="hardAlpha"/>
<feOffset dx="-20.4047" dy="20.4047"/>
<feGaussianBlur stdDeviation="15.3036"/>
<feComposite in2="hardAlpha" operator="out"/>
<feColorMatrix type="matrix" values="0 0 0 0 0.180392 0 0 0 0 0.407843 0 0 0 0 0.992157 0 0 0 0.08 0"/>
<feBlend mode="normal" in2="BackgroundImageFix" result="effect1_dropShadow_2167_766"/>
<feColorMatrix in="SourceAlpha" type="matrix" values="0 0 0 0 0 0 0 0 0 0 0 0 0 0 0 0 0 0 127 0" result="hardAlpha"/>
<feOffset dy="-16.3238"/>
<feGaussianBlur stdDeviation="10.2024"/>
<feComposite in2="hardAlpha" operator="out"/>
<feColorMatrix type="matrix" values="0 0 0 0 0.180392 0 0 0 0 0.407843 0 0 0 0 0.992157 0 0 0 0.04 0"/>
<feBlend mode="normal" in2="effect1_dropShadow_2167_766" result="effect2_dropShadow_2167_766"/>
<feBlend mode="normal" in="SourceGraphic" in2="effect2_dropShadow_2167_766" result="shape"/>
</filter>
</defs>
</svg>
