<svg width="296" height="190" viewBox="0 0 296 190" fill="none" xmlns="http://www.w3.org/2000/svg">
<g filter="url(#filter0_dd_2167_758)">
<rect x="51.0117" y="36.7285" width="224" height="102" rx="8.1619" fill="white" shape-rendering="crispEdges"/>
<path d="M91.4188 75.0661V75.0828M75.0414 70.6963C74.3104 70.1345 73.749 69.3816 73.4192 68.5207C73.0894 67.6597 73.0041 66.7244 73.1727 65.818C73.3412 64.9117 73.7571 64.0696 74.3743 63.3848C74.9916 62.7 75.7861 62.1992 76.6702 61.9377C77.5542 61.6762 78.4934 61.6643 79.3838 61.9032C80.2742 62.1421 81.0812 62.6226 81.7157 63.2915C82.3501 63.9604 82.7872 64.7916 82.9788 65.6934C83.1703 66.5952 83.1087 67.5324 82.8009 68.4014" stroke="#374ADE" stroke-width="3" stroke-linecap="round" stroke-linejoin="round"/>
<path d="M93.0853 63.4004V69.7384C95.1478 70.932 96.7181 72.8207 97.515 75.0664H99.7499C100.192 75.0664 100.616 75.242 100.928 75.5546C101.241 75.8671 101.417 76.291 101.417 76.733V80.0662C101.417 80.5082 101.241 80.9321 100.928 81.2446C100.616 81.5572 100.192 81.7327 99.7499 81.7327H97.5134C96.9534 83.316 96.0018 84.7326 94.7502 85.8542V89.2323C94.7502 89.8953 94.4868 90.5312 94.018 91C93.5492 91.4688 92.9133 91.7322 92.2503 91.7322C91.5873 91.7322 90.9515 91.4688 90.4827 91C90.0138 90.5312 89.7505 89.8953 89.7505 89.2323V88.2607C89.1998 88.3533 88.6423 88.3996 88.0839 88.399H81.4176C80.8592 88.3996 80.3017 88.3533 79.751 88.2607V89.2323C79.751 89.8953 79.4876 90.5312 79.0188 91C78.55 91.4688 77.9141 91.7322 77.2511 91.7322C76.5881 91.7322 75.9523 91.4688 75.4835 91C75.0146 90.5312 74.7513 89.8953 74.7513 89.2323V85.8542C73.2413 84.5042 72.1769 82.7275 71.6989 80.7592C71.2209 78.791 71.352 76.724 72.0746 74.8318C72.7973 72.9397 74.0776 71.3116 75.7459 70.1631C77.4143 69.0146 79.3921 68.3998 81.4176 68.4001H85.584L93.0853 63.4004Z" stroke="#374ADE" stroke-width="3" stroke-linecap="round" stroke-linejoin="round"/>
<path d="M124.513 73.345C123.599 73.345 122.802 73.1219 122.121 72.6757C121.447 72.2296 120.922 71.631 120.546 70.8801C120.176 70.1238 119.991 69.2858 119.991 68.3663V61.7062H121.689V68.3663C121.689 68.9648 121.798 69.5144 122.015 70.015C122.238 70.5101 122.559 70.9073 122.978 71.2066C123.403 71.5004 123.914 71.6473 124.513 71.6473C125.128 71.6473 125.645 71.5004 126.064 71.2066C126.483 70.9073 126.798 70.5101 127.01 70.015C127.228 69.5144 127.337 68.9648 127.337 68.3663V61.7062H129.035V68.3663C129.035 69.0573 128.928 69.7048 128.716 70.3088C128.504 70.9073 128.199 71.4351 127.802 71.8922C127.405 72.3493 126.929 72.7057 126.374 72.9614C125.819 73.2172 125.198 73.345 124.513 73.345ZM138.129 68.0153V73.1328H136.431V68.4316C136.431 68.067 136.342 67.7351 136.162 67.4358C135.988 67.1365 135.751 66.8998 135.452 66.7257C135.158 66.5462 134.826 66.4564 134.456 66.4564C134.097 66.4564 133.768 66.5462 133.469 66.7257C133.169 66.8998 132.93 67.1365 132.75 67.4358C132.571 67.7351 132.481 68.067 132.481 68.4316V73.1328H130.783V64.9709H132.481V65.8361C132.764 65.4987 133.112 65.2321 133.526 65.0362C133.939 64.8403 134.385 64.7424 134.864 64.7424C135.468 64.7424 136.018 64.8893 136.513 65.1831C137.008 65.477 137.4 65.8714 137.688 66.3666C137.982 66.8618 138.129 67.4113 138.129 68.0153ZM139.822 73.1328V60.89H141.52V73.1328H139.822ZM146.952 73.345C146.201 73.345 145.516 73.1519 144.895 72.7655C144.281 72.3792 143.788 71.8623 143.418 71.2148C143.054 70.5618 142.871 69.8408 142.871 69.0519C142.871 68.4533 142.977 67.8956 143.19 67.3787C143.402 66.8563 143.693 66.3992 144.063 66.0075C144.438 65.6103 144.874 65.3001 145.369 65.077C145.864 64.8539 146.392 64.7424 146.952 64.7424C147.703 64.7424 148.386 64.9355 149.001 65.3219C149.621 65.7082 150.114 66.2278 150.478 66.8808C150.848 67.5337 151.033 68.2574 151.033 69.0519C151.033 69.645 150.927 70.2 150.715 70.7169C150.503 71.2338 150.209 71.6909 149.833 72.0881C149.463 72.4799 149.031 72.7873 148.536 73.0104C148.046 73.2335 147.518 73.345 146.952 73.345ZM146.952 71.6473C147.404 71.6473 147.809 71.5276 148.168 71.2882C148.527 71.0488 148.81 70.7332 149.017 70.3414C149.229 69.9442 149.335 69.5144 149.335 69.0519C149.335 68.5785 149.227 68.1432 149.009 67.746C148.797 67.3487 148.511 67.0332 148.152 66.7992C147.793 66.5598 147.393 66.4401 146.952 66.4401C146.506 66.4401 146.101 66.5598 145.736 66.7992C145.377 67.0386 145.091 67.3569 144.879 67.7541C144.672 68.1513 144.569 68.5839 144.569 69.0519C144.569 69.5361 144.678 69.9742 144.895 70.3659C145.113 70.7577 145.401 71.0706 145.761 71.3045C146.125 71.5331 146.522 71.6473 146.952 71.6473ZM157.666 70.8148L159.184 71.6392C158.814 72.1561 158.343 72.5696 157.772 72.8798C157.206 73.1899 156.591 73.345 155.927 73.345C155.176 73.345 154.491 73.1519 153.87 72.7655C153.255 72.3792 152.763 71.8623 152.393 71.2148C152.028 70.5618 151.846 69.8408 151.846 69.0519C151.846 68.4533 151.952 67.8956 152.164 67.3787C152.377 66.8563 152.668 66.3992 153.038 66.0075C153.413 65.6103 153.849 65.3001 154.344 65.077C154.839 64.8539 155.367 64.7424 155.927 64.7424C156.591 64.7424 157.206 64.8975 157.772 65.2076C158.343 65.5178 158.814 65.934 159.184 66.4564L157.666 67.2807C157.437 67.0087 157.17 66.8019 156.866 66.6604C156.561 66.5135 156.248 66.4401 155.927 66.4401C155.481 66.4401 155.076 66.5625 154.711 66.8073C154.352 67.0468 154.066 67.3651 153.854 67.7623C153.647 68.1541 153.544 68.5839 153.544 69.0519C153.544 69.5144 153.65 69.9442 153.862 70.3414C154.074 70.7332 154.36 71.0488 154.719 71.2882C155.084 71.5276 155.486 71.6473 155.927 71.6473C156.264 71.6473 156.585 71.5712 156.89 71.4188C157.195 71.2665 157.453 71.0651 157.666 70.8148ZM167.428 73.1328H165.47L163.462 69.6722L162.148 71.2393V73.1328H160.45V60.89H162.148V68.603L165.184 64.9709H167.404L164.621 68.2928L167.428 73.1328ZM176.925 73.345C176.299 73.345 175.698 73.2471 175.121 73.0512C174.544 72.8553 174.041 72.5751 173.611 72.2105C173.181 71.8405 172.874 71.4025 172.689 70.8965L174.281 70.3006C174.373 70.5618 174.55 70.7958 174.811 71.0026C175.078 71.2039 175.393 71.3617 175.758 71.4759C176.128 71.5902 176.517 71.6473 176.925 71.6473C177.36 71.6473 177.768 71.5766 178.149 71.4351C178.536 71.2937 178.846 71.0978 179.08 70.8475C179.319 70.5972 179.439 70.3034 179.439 69.966C179.439 69.6178 179.314 69.3321 179.063 69.109C178.819 68.8859 178.503 68.7091 178.117 68.5785C177.736 68.4479 177.339 68.3499 176.925 68.2846C176.125 68.1541 175.407 67.9636 174.77 67.7133C174.139 67.463 173.638 67.1121 173.268 66.6604C172.904 66.2088 172.722 65.6211 172.722 64.8975C172.722 64.2173 172.915 63.6242 173.301 63.1182C173.693 62.6121 174.207 62.2204 174.844 61.9428C175.486 61.6599 176.18 61.5184 176.925 61.5184C177.54 61.5184 178.133 61.6164 178.704 61.8123C179.281 62.0027 179.787 62.2829 180.222 62.6529C180.663 63.0175 180.979 63.461 181.169 63.9833L179.561 64.5628C179.469 64.2962 179.292 64.0649 179.031 63.8691C178.77 63.6677 178.454 63.5099 178.084 63.3957C177.719 63.2814 177.333 63.2243 176.925 63.2243C176.49 63.2188 176.082 63.2896 175.701 63.4365C175.325 63.5779 175.018 63.7738 174.778 64.0241C174.539 64.2744 174.419 64.5655 174.419 64.8975C174.419 65.3056 174.531 65.6157 174.754 65.8279C174.977 66.0401 175.276 66.1979 175.652 66.3013C176.033 66.3992 176.457 66.489 176.925 66.5706C177.676 66.6904 178.37 66.889 179.006 67.1665C179.648 67.444 180.163 67.814 180.549 68.2765C180.941 68.7335 181.137 69.2967 181.137 69.966C181.137 70.6407 180.941 71.2338 180.549 71.7453C180.163 72.2513 179.648 72.6458 179.006 72.9288C178.37 73.2063 177.676 73.345 176.925 73.345ZM187.125 66.6686H185.411L185.403 73.1328H183.705L183.713 66.6686H182.416V64.9709H183.713L183.705 62.4081H185.403L185.411 64.9709H187.125V66.6686ZM188.586 73.1328V64.9709H190.284V65.8361C190.567 65.4987 190.915 65.2321 191.329 65.0362C191.742 64.8403 192.188 64.7424 192.667 64.7424C192.972 64.7424 193.274 64.7832 193.573 64.8648L192.896 66.5788C192.683 66.4972 192.471 66.4564 192.259 66.4564C191.9 66.4564 191.571 66.5462 191.271 66.7257C190.972 66.8998 190.733 67.1365 190.553 67.4358C190.374 67.7351 190.284 68.067 190.284 68.4316V73.1328H188.586ZM200.484 64.9709H202.181V73.1328H200.475L200.41 71.9493C200.171 72.3683 199.847 72.7057 199.439 72.9614C199.031 73.2172 198.549 73.345 197.994 73.345C197.396 73.345 196.833 73.2335 196.305 73.0104C195.777 72.7819 195.312 72.4663 194.909 72.0636C194.512 71.661 194.202 71.1984 193.979 70.6761C193.756 70.1483 193.644 69.5824 193.644 68.9784C193.644 68.3962 193.753 67.8493 193.97 67.3379C194.188 66.8209 194.49 66.3693 194.876 65.983C195.263 65.5967 195.709 65.2947 196.215 65.077C196.726 64.8539 197.273 64.7424 197.856 64.7424C198.449 64.7424 198.971 64.8784 199.423 65.1505C199.88 65.4171 200.258 65.7599 200.557 66.1789L200.484 64.9709ZM197.953 71.7045C198.432 71.7045 198.851 71.5875 199.21 71.3535C199.57 71.1141 199.847 70.7931 200.043 70.3904C200.244 69.9878 200.345 69.5416 200.345 69.0519C200.345 68.5567 200.244 68.1078 200.043 67.7051C199.842 67.3025 199.561 66.9842 199.202 66.7502C198.849 66.5108 198.432 66.3911 197.953 66.3911C197.48 66.3911 197.047 66.5108 196.656 66.7502C196.264 66.9896 195.954 67.3107 195.725 67.7133C195.497 68.116 195.382 68.5621 195.382 69.0519C195.382 69.547 195.499 69.9959 195.733 70.3986C195.973 70.7958 196.286 71.1141 196.672 71.3535C197.064 71.5875 197.491 71.7045 197.953 71.7045ZM208.119 66.6686H206.406L206.397 73.1328H204.7L204.708 66.6686H203.41V64.9709H204.708L204.7 62.4081H206.397L206.406 64.9709H208.119V66.6686ZM212.981 73.345C212.23 73.345 211.544 73.1519 210.924 72.7655C210.309 72.3792 209.817 71.8623 209.447 71.2148C209.082 70.5618 208.9 69.8408 208.9 69.0519C208.9 68.4533 209.006 67.8956 209.218 67.3787C209.43 66.8563 209.721 66.3992 210.091 66.0075C210.467 65.6103 210.902 65.3001 211.397 65.077C211.892 64.8539 212.42 64.7424 212.981 64.7424C213.606 64.7424 214.18 64.873 214.703 65.1342C215.225 65.3899 215.671 65.7463 216.041 66.2034C216.411 66.655 216.683 67.1773 216.858 67.7704C217.032 68.3581 217.083 68.9838 217.013 69.6477H210.72C210.791 70.0231 210.927 70.3632 211.128 70.6679C211.335 70.9672 211.596 71.2039 211.911 71.378C212.233 71.5521 212.589 71.6419 212.981 71.6473C213.394 71.6473 213.77 71.544 214.107 71.3372C214.45 71.1304 214.73 70.8448 214.948 70.4802L216.67 70.8801C216.343 71.6038 215.851 72.1969 215.193 72.6594C214.534 73.1165 213.797 73.345 212.981 73.345ZM210.663 68.3499H215.299C215.244 67.9582 215.105 67.6045 214.882 67.2889C214.665 66.9679 214.39 66.7148 214.058 66.5298C213.732 66.3394 213.372 66.2442 212.981 66.2442C212.594 66.2442 212.235 66.3367 211.903 66.5217C211.577 66.7067 211.305 66.9597 211.087 67.2807C210.875 67.5963 210.733 67.9527 210.663 68.3499ZM224.56 64.9709H226.257V73.345C226.257 73.9055 226.138 74.4224 225.898 74.8958C225.664 75.3692 225.346 75.7773 224.943 76.1201C224.541 76.4683 224.078 76.7377 223.556 76.9281C223.039 77.1185 222.497 77.2138 221.931 77.2138C221.36 77.2138 220.811 77.0913 220.283 76.8465C219.755 76.6071 219.29 76.2806 218.887 75.867C218.49 75.4535 218.193 74.9856 217.997 74.4632L219.556 73.7613C219.665 74.0986 219.839 74.3979 220.079 74.6591C220.324 74.9203 220.607 75.127 220.928 75.2794C221.254 75.4317 221.589 75.5079 221.931 75.5079C222.269 75.5079 222.593 75.4535 222.903 75.3447C223.218 75.2413 223.499 75.0944 223.743 74.9039C223.994 74.7135 224.192 74.485 224.339 74.2183C224.486 73.9517 224.56 73.6606 224.56 73.345V71.9657C224.293 72.3792 223.95 72.7138 223.531 72.9696C223.112 73.2199 222.625 73.345 222.07 73.345C221.493 73.345 220.949 73.2335 220.438 73.0104C219.926 72.7873 219.477 72.4799 219.091 72.0881C218.705 71.6909 218.403 71.2338 218.185 70.7169C217.968 70.2 217.859 69.645 217.859 69.0519C217.859 68.4588 217.968 67.9038 218.185 67.3868C218.403 66.8645 218.705 66.4074 219.091 66.0156C219.477 65.6184 219.926 65.3083 220.438 65.0852C220.949 64.8621 221.493 64.7505 222.07 64.7505C222.625 64.7505 223.112 64.8784 223.531 65.1342C223.95 65.3844 224.293 65.7191 224.56 66.1381V64.9709ZM222.087 71.7045C222.56 71.7045 222.973 71.5848 223.327 71.3454C223.681 71.1005 223.956 70.7767 224.152 70.3741C224.347 69.9714 224.445 69.5307 224.445 69.0519C224.445 68.5621 224.345 68.1187 224.143 67.7215C223.947 67.3188 223.673 66.9978 223.319 66.7584C222.965 66.5135 222.554 66.3911 222.087 66.3911C221.629 66.3911 221.211 66.5108 220.83 66.7502C220.454 66.9896 220.155 67.3107 219.932 67.7133C219.709 68.116 219.597 68.5621 219.597 69.0519C219.597 69.5416 219.709 69.9878 219.932 70.3904C220.16 70.7931 220.462 71.1141 220.838 71.3535C221.219 71.5875 221.635 71.7045 222.087 71.7045ZM228.073 64.9709H229.77V73.1328H228.073V64.9709ZM228.938 63.7874C228.677 63.7874 228.459 63.7031 228.285 63.5344C228.111 63.3657 228.024 63.1535 228.024 62.8978C228.024 62.6475 228.111 62.438 228.285 62.2693C228.459 62.0952 228.674 62.0081 228.93 62.0081C229.18 62.0081 229.392 62.0952 229.566 62.2693C229.74 62.438 229.827 62.6475 229.827 62.8978C229.827 63.1535 229.74 63.3657 229.566 63.5344C229.397 63.7031 229.188 63.7874 228.938 63.7874ZM236.909 70.8148L238.427 71.6392C238.057 72.1561 237.587 72.5696 237.015 72.8798C236.45 73.1899 235.835 73.345 235.171 73.345C234.42 73.345 233.734 73.1519 233.114 72.7655C232.499 72.3792 232.007 71.8623 231.637 71.2148C231.272 70.5618 231.09 69.8408 231.09 69.0519C231.09 68.4533 231.196 67.8956 231.408 67.3787C231.62 66.8563 231.912 66.3992 232.282 66.0075C232.657 65.6103 233.092 65.3001 233.587 65.077C234.083 64.8539 234.61 64.7424 235.171 64.7424C235.835 64.7424 236.45 64.8975 237.015 65.2076C237.587 65.5178 238.057 65.934 238.427 66.4564L236.909 67.2807C236.681 67.0087 236.414 66.8019 236.109 66.6604C235.805 66.5135 235.492 66.4401 235.171 66.4401C234.725 66.4401 234.319 66.5625 233.955 66.8073C233.596 67.0468 233.31 67.3651 233.098 67.7623C232.891 68.1541 232.788 68.5839 232.788 69.0519C232.788 69.5144 232.894 69.9442 233.106 70.3414C233.318 70.7332 233.604 71.0488 233.963 71.2882C234.327 71.5276 234.73 71.6473 235.171 71.6473C235.508 71.6473 235.829 71.5712 236.134 71.4188C236.439 71.2665 236.697 71.0651 236.909 70.8148ZM119.991 93.1328V81.7062H126.725V83.4038H121.689V86.1626H125.941V87.8602H121.689V93.1328H119.991ZM127.436 84.9709H129.133V93.1328H127.436V84.9709ZM128.301 83.7874C128.04 83.7874 127.822 83.7031 127.648 83.5344C127.474 83.3657 127.387 83.1535 127.387 82.8978C127.387 82.6475 127.474 82.438 127.648 82.2693C127.822 82.0952 128.037 82.0081 128.293 82.0081C128.543 82.0081 128.755 82.0952 128.929 82.2693C129.103 82.438 129.19 82.6475 129.19 82.8978C129.19 83.1535 129.103 83.3657 128.929 83.5344C128.761 83.7031 128.551 83.7874 128.301 83.7874ZM138.368 88.0153V93.1328H136.67V88.4316C136.67 88.067 136.581 87.7351 136.401 87.4358C136.227 87.1365 135.99 86.8998 135.691 86.7257C135.397 86.5462 135.065 86.4564 134.695 86.4564C134.336 86.4564 134.007 86.5462 133.708 86.7257C133.408 86.8998 133.169 87.1365 132.989 87.4358C132.81 87.7351 132.72 88.067 132.72 88.4316V93.1328H131.022V84.9709H132.72V85.8361C133.003 85.4987 133.351 85.2321 133.765 85.0362C134.178 84.8403 134.625 84.7424 135.103 84.7424C135.707 84.7424 136.257 84.8893 136.752 85.1831C137.247 85.477 137.639 85.8714 137.927 86.3666C138.221 86.8618 138.368 87.4113 138.368 88.0153ZM146.188 84.9709H147.886V93.1328H146.18L146.114 91.9493C145.875 92.3683 145.551 92.7057 145.143 92.9614C144.735 93.2172 144.254 93.345 143.699 93.345C143.1 93.345 142.537 93.2335 142.009 93.0104C141.481 92.7819 141.016 92.4663 140.613 92.0636C140.216 91.661 139.906 91.1984 139.683 90.6761C139.46 90.1483 139.348 89.5824 139.348 88.9784C139.348 88.3962 139.457 87.8493 139.675 87.3379C139.892 86.8209 140.194 86.3693 140.581 85.983C140.967 85.5967 141.413 85.2947 141.919 85.077C142.431 84.8539 142.978 84.7424 143.56 84.7424C144.153 84.7424 144.675 84.8784 145.127 85.1505C145.584 85.4171 145.962 85.7599 146.261 86.1789L146.188 84.9709ZM143.658 91.7045C144.137 91.7045 144.556 91.5875 144.915 91.3535C145.274 91.1141 145.551 90.7931 145.747 90.3904C145.948 89.9878 146.049 89.5416 146.049 89.0519C146.049 88.5567 145.948 88.1078 145.747 87.7051C145.546 87.3025 145.266 86.9842 144.906 86.7502C144.553 86.5108 144.137 86.3911 143.658 86.3911C143.184 86.3911 142.752 86.5108 142.36 86.7502C141.968 86.9896 141.658 87.3107 141.43 87.7133C141.201 88.116 141.087 88.5621 141.087 89.0519C141.087 89.547 141.204 89.9959 141.438 90.3986C141.677 90.7958 141.99 91.1141 142.376 91.3535C142.768 91.5875 143.195 91.7045 143.658 91.7045ZM156.86 88.0153V93.1328H155.162V88.4316C155.162 88.067 155.073 87.7351 154.893 87.4358C154.719 87.1365 154.482 86.8998 154.183 86.7257C153.889 86.5462 153.557 86.4564 153.187 86.4564C152.828 86.4564 152.499 86.5462 152.2 86.7257C151.9 86.8998 151.661 87.1365 151.481 87.4358C151.302 87.7351 151.212 88.067 151.212 88.4316V93.1328H149.514V84.9709H151.212V85.8361C151.495 85.4987 151.843 85.2321 152.257 85.0362C152.67 84.8403 153.116 84.7424 153.595 84.7424C154.199 84.7424 154.749 84.8893 155.244 85.1831C155.739 85.477 156.131 85.8714 156.419 86.3666C156.713 86.8618 156.86 87.4113 156.86 88.0153ZM163.659 90.8148L165.178 91.6392C164.808 92.1561 164.337 92.5696 163.766 92.8798C163.2 93.1899 162.585 93.345 161.921 93.345C161.17 93.345 160.484 93.1519 159.864 92.7655C159.249 92.3792 158.757 91.8623 158.387 91.2148C158.022 90.5618 157.84 89.8408 157.84 89.0519C157.84 88.4533 157.946 87.8956 158.158 87.3787C158.371 86.8563 158.662 86.3992 159.032 86.0075C159.407 85.6103 159.842 85.3001 160.338 85.077C160.833 84.8539 161.361 84.7424 161.921 84.7424C162.585 84.7424 163.2 84.8975 163.766 85.2076C164.337 85.5178 164.808 85.934 165.178 86.4564L163.659 87.2807C163.431 87.0087 163.164 86.8019 162.86 86.6604C162.555 86.5135 162.242 86.4401 161.921 86.4401C161.475 86.4401 161.069 86.5625 160.705 86.8073C160.346 87.0468 160.06 87.3651 159.848 87.7623C159.641 88.1541 159.538 88.5839 159.538 89.0519C159.538 89.5144 159.644 89.9442 159.856 90.3414C160.068 90.7332 160.354 91.0488 160.713 91.2882C161.078 91.5276 161.48 91.6473 161.921 91.6473C162.258 91.6473 162.579 91.5712 162.884 91.4188C163.189 91.2665 163.447 91.0651 163.659 90.8148ZM166.396 84.9709H168.094V93.1328H166.396V84.9709ZM167.261 83.7874C167 83.7874 166.782 83.7031 166.608 83.5344C166.434 83.3657 166.347 83.1535 166.347 82.8978C166.347 82.6475 166.434 82.438 166.608 82.2693C166.782 82.0952 166.997 82.0081 167.253 82.0081C167.503 82.0081 167.716 82.0952 167.89 82.2693C168.064 82.438 168.151 82.6475 168.151 82.8978C168.151 83.1535 168.064 83.3657 167.89 83.5344C167.721 83.7031 167.511 83.7874 167.261 83.7874ZM176.253 84.9709H177.951V93.1328H176.245L176.18 91.9493C175.94 92.3683 175.616 92.7057 175.208 92.9614C174.8 93.2172 174.319 93.345 173.764 93.345C173.165 93.345 172.602 93.2335 172.074 93.0104C171.546 92.7819 171.081 92.4663 170.678 92.0636C170.281 91.661 169.971 91.1984 169.748 90.6761C169.525 90.1483 169.413 89.5824 169.413 88.9784C169.413 88.3962 169.522 87.8493 169.74 87.3379C169.957 86.8209 170.259 86.3693 170.646 85.983C171.032 85.5967 171.478 85.2947 171.984 85.077C172.496 84.8539 173.043 84.7424 173.625 84.7424C174.218 84.7424 174.74 84.8784 175.192 85.1505C175.649 85.4171 176.027 85.7599 176.326 86.1789L176.253 84.9709ZM173.723 91.7045C174.202 91.7045 174.621 91.5875 174.98 91.3535C175.339 91.1141 175.616 90.7931 175.812 90.3904C176.014 89.9878 176.114 89.5416 176.114 89.0519C176.114 88.5567 176.014 88.1078 175.812 87.7051C175.611 87.3025 175.331 86.9842 174.972 86.7502C174.618 86.5108 174.202 86.3911 173.723 86.3911C173.249 86.3911 172.817 86.5108 172.425 86.7502C172.033 86.9896 171.723 87.3107 171.495 87.7133C171.266 88.116 171.152 88.5621 171.152 89.0519C171.152 89.547 171.269 89.9959 171.503 90.3986C171.742 90.7958 172.055 91.1141 172.441 91.3535C172.833 91.5875 173.26 91.7045 173.723 91.7045ZM179.643 93.1328V80.89H181.341V93.1328H179.643ZM187.46 93.1328V81.7062H189.158V93.1328H187.46ZM198.706 88.0153V93.1328H197.008V88.4316C197.008 88.067 196.918 87.7351 196.739 87.4358C196.565 87.1365 196.328 86.8998 196.029 86.7257C195.735 86.5462 195.403 86.4564 195.033 86.4564C194.674 86.4564 194.344 86.5462 194.045 86.7257C193.746 86.8998 193.507 87.1365 193.327 87.4358C193.147 87.7351 193.058 88.067 193.058 88.4316V93.1328H191.36V84.9709H193.058V85.8361C193.341 85.4987 193.689 85.2321 194.102 85.0362C194.516 84.8403 194.962 84.7424 195.441 84.7424C196.045 84.7424 196.594 84.8893 197.09 85.1831C197.585 85.477 197.977 85.8714 198.265 86.3666C198.559 86.8618 198.706 87.4113 198.706 88.0153ZM202.783 93.2879C202.354 93.2607 201.935 93.1736 201.526 93.0267C201.118 92.8798 200.759 92.6812 200.449 92.4309C200.144 92.1751 199.916 91.8759 199.764 91.5331L201.208 90.9128C201.279 91.0597 201.401 91.2039 201.575 91.3454C201.755 91.4868 201.964 91.6038 202.204 91.6963C202.443 91.7834 202.694 91.8269 202.955 91.8269C203.211 91.8269 203.447 91.7915 203.665 91.7208C203.888 91.6446 204.07 91.5304 204.212 91.378C204.353 91.2256 204.424 91.0434 204.424 90.8312C204.424 90.5917 204.342 90.4067 204.179 90.2761C204.021 90.1401 203.823 90.0367 203.583 89.966C203.344 89.8953 203.104 89.8272 202.865 89.7619C202.332 89.6422 201.842 89.479 201.396 89.2722C200.955 89.06 200.604 88.7907 200.343 88.4642C200.082 88.1323 199.951 87.7269 199.951 87.2481C199.951 86.7257 200.093 86.2741 200.376 85.8932C200.659 85.5069 201.029 85.2103 201.486 85.0036C201.948 84.7968 202.441 84.6934 202.963 84.6934C203.616 84.6934 204.214 84.8322 204.759 85.1097C205.303 85.3872 205.719 85.7681 206.007 86.2523L204.661 87.0522C204.579 86.889 204.457 86.742 204.293 86.6115C204.13 86.4809 203.945 86.3775 203.738 86.3013C203.532 86.2197 203.317 86.1734 203.094 86.1626C202.816 86.1517 202.558 86.1843 202.318 86.2605C202.084 86.3312 201.896 86.4455 201.755 86.6033C201.614 86.7611 201.543 86.9624 201.543 87.2073C201.543 87.4467 201.627 87.6263 201.796 87.746C201.964 87.8602 202.177 87.9527 202.432 88.0235C202.694 88.0942 202.96 88.1731 203.232 88.2602C203.717 88.4125 204.171 88.6002 204.595 88.8233C205.02 89.041 205.363 89.3103 205.624 89.6314C205.885 89.9524 206.01 90.3442 205.999 90.8067C205.999 91.3182 205.844 91.7671 205.534 92.1534C205.229 92.5397 204.832 92.8335 204.342 93.0349C203.853 93.2362 203.333 93.3205 202.783 93.2879ZM207.253 84.9709H208.951V93.1328H207.253V84.9709ZM208.118 83.7874C207.857 83.7874 207.64 83.7031 207.466 83.5344C207.291 83.3657 207.204 83.1535 207.204 82.8978C207.204 82.6475 207.291 82.438 207.466 82.2693C207.64 82.0952 207.855 82.0081 208.11 82.0081C208.361 82.0081 208.573 82.0952 208.747 82.2693C208.921 82.438 209.008 82.6475 209.008 82.8978C209.008 83.1535 208.921 83.3657 208.747 83.5344C208.578 83.7031 208.369 83.7874 208.118 83.7874ZM216.972 84.9709H218.669V93.345C218.669 93.9055 218.55 94.4224 218.31 94.8958C218.076 95.3692 217.758 95.7773 217.355 96.1201C216.953 96.4683 216.49 96.7377 215.968 96.9281C215.451 97.1185 214.909 97.2138 214.343 97.2138C213.772 97.2138 213.223 97.0913 212.695 96.8465C212.167 96.6071 211.702 96.2806 211.299 95.867C210.902 95.4535 210.605 94.9856 210.409 94.4632L211.968 93.7613C212.077 94.0986 212.251 94.3979 212.491 94.6591C212.736 94.9203 213.019 95.127 213.34 95.2794C213.666 95.4317 214.001 95.5079 214.343 95.5079C214.681 95.5079 215.005 95.4535 215.315 95.3447C215.63 95.2413 215.911 95.0944 216.155 94.9039C216.406 94.7135 216.604 94.485 216.751 94.2183C216.898 93.9517 216.972 93.6606 216.972 93.345V91.9657C216.705 92.3792 216.362 92.7138 215.943 92.9696C215.524 93.2199 215.037 93.345 214.482 93.345C213.905 93.345 213.361 93.2335 212.85 93.0104C212.338 92.7873 211.889 92.4799 211.503 92.0881C211.117 91.6909 210.815 91.2338 210.597 90.7169C210.379 90.2 210.271 89.645 210.271 89.0519C210.271 88.4588 210.379 87.9038 210.597 87.3868C210.815 86.8645 211.117 86.4074 211.503 86.0156C211.889 85.6184 212.338 85.3083 212.85 85.0852C213.361 84.8621 213.905 84.7505 214.482 84.7505C215.037 84.7505 215.524 84.8784 215.943 85.1342C216.362 85.3844 216.705 85.7191 216.972 86.1381V84.9709ZM214.499 91.7045C214.972 91.7045 215.385 91.5848 215.739 91.3454C216.093 91.1005 216.368 90.7767 216.563 90.3741C216.759 89.9714 216.857 89.5307 216.857 89.0519C216.857 88.5621 216.757 88.1187 216.555 87.7215C216.359 87.3188 216.085 86.9978 215.731 86.7584C215.377 86.5135 214.966 86.3911 214.499 86.3911C214.041 86.3911 213.622 86.5108 213.242 86.7502C212.866 86.9896 212.567 87.3107 212.344 87.7133C212.121 88.116 212.009 88.5621 212.009 89.0519C212.009 89.5416 212.121 89.9878 212.344 90.3904C212.572 90.7931 212.874 91.1141 213.25 91.3535C213.631 91.5875 214.047 91.7045 214.499 91.7045ZM227.974 88.0153V93.1328H226.276V88.4316C226.276 88.067 226.186 87.7351 226.007 87.4358C225.833 87.1365 225.596 86.8998 225.297 86.7257C225.003 86.5462 224.671 86.4564 224.301 86.4564C223.942 86.4564 223.613 86.5462 223.313 86.7257C223.014 86.8998 222.775 87.1365 222.595 87.4358C222.415 87.7351 222.326 88.067 222.326 88.4316V93.1328H220.628V80.89H222.326V85.8361C222.609 85.4987 222.957 85.2321 223.37 85.0362C223.784 84.8403 224.23 84.7424 224.709 84.7424C225.313 84.7424 225.862 84.8893 226.358 85.1831C226.853 85.477 227.245 85.8714 227.533 86.3666C227.827 86.8618 227.974 87.4113 227.974 88.0153ZM233.912 86.6686H232.198L232.19 93.1328H230.493L230.501 86.6686H229.203V84.9709H230.501L230.493 82.4081H232.19L232.198 84.9709H233.912V86.6686ZM237.711 93.2879C237.281 93.2607 236.862 93.1736 236.454 93.0267C236.046 92.8798 235.686 92.6812 235.376 92.4309C235.072 92.1751 234.843 91.8759 234.691 91.5331L236.135 90.9128C236.206 91.0597 236.329 91.2039 236.503 91.3454C236.682 91.4868 236.892 91.6038 237.131 91.6963C237.371 91.7834 237.621 91.8269 237.882 91.8269C238.138 91.8269 238.374 91.7915 238.592 91.7208C238.815 91.6446 238.997 91.5304 239.139 91.378C239.28 91.2256 239.351 91.0434 239.351 90.8312C239.351 90.5917 239.27 90.4067 239.106 90.2761C238.948 90.1401 238.75 90.0367 238.51 89.966C238.271 89.8953 238.032 89.8272 237.792 89.7619C237.259 89.6422 236.769 89.479 236.323 89.2722C235.882 89.06 235.531 88.7907 235.27 88.4642C235.009 88.1323 234.878 87.7269 234.878 87.2481C234.878 86.7257 235.02 86.2741 235.303 85.8932C235.586 85.5069 235.956 85.2103 236.413 85.0036C236.875 84.7968 237.368 84.6934 237.89 84.6934C238.543 84.6934 239.142 84.8322 239.686 85.1097C240.23 85.3872 240.646 85.7681 240.935 86.2523L239.588 87.0522C239.506 86.889 239.384 86.742 239.221 86.6115C239.057 86.4809 238.872 86.3775 238.666 86.3013C238.459 86.2197 238.244 86.1734 238.021 86.1626C237.743 86.1517 237.485 86.1843 237.245 86.2605C237.011 86.3312 236.824 86.4455 236.682 86.6033C236.541 86.7611 236.47 86.9624 236.47 87.2073C236.47 87.4467 236.554 87.6263 236.723 87.746C236.892 87.8602 237.104 87.9527 237.36 88.0235C237.621 88.0942 237.887 88.1731 238.159 88.2602C238.644 88.4125 239.098 88.6002 239.523 88.8233C239.947 89.041 240.29 89.3103 240.551 89.6314C240.812 89.9524 240.937 90.3442 240.926 90.8067C240.926 91.3182 240.771 91.7671 240.461 92.1534C240.156 92.5397 239.759 92.8335 239.27 93.0349C238.78 93.2362 238.26 93.3205 237.711 93.2879Z" fill="#01081B"/>
<path d="M122.312 115.849C121.656 115.849 121.096 115.729 120.632 115.489C120.168 115.249 119.756 114.901 119.396 114.445L120.164 113.677C120.428 114.045 120.732 114.325 121.076 114.517C121.42 114.701 121.844 114.793 122.348 114.793C122.844 114.793 123.24 114.685 123.536 114.469C123.84 114.253 123.992 113.957 123.992 113.581C123.992 113.269 123.92 113.017 123.776 112.825C123.632 112.633 123.436 112.477 123.188 112.357C122.948 112.229 122.684 112.117 122.396 112.021C122.108 111.917 121.82 111.809 121.532 111.697C121.244 111.577 120.98 111.433 120.74 111.265C120.5 111.089 120.304 110.861 120.152 110.581C120.008 110.301 119.936 109.949 119.936 109.525C119.936 109.053 120.048 108.653 120.272 108.325C120.504 107.989 120.816 107.733 121.208 107.557C121.608 107.373 122.056 107.281 122.552 107.281C123.096 107.281 123.584 107.389 124.016 107.605C124.448 107.813 124.8 108.089 125.072 108.433L124.304 109.201C124.056 108.913 123.788 108.697 123.5 108.553C123.22 108.409 122.896 108.337 122.528 108.337C122.08 108.337 121.724 108.437 121.46 108.637C121.196 108.829 121.064 109.101 121.064 109.453C121.064 109.733 121.136 109.961 121.28 110.137C121.432 110.305 121.628 110.449 121.868 110.569C122.108 110.689 122.372 110.801 122.66 110.905C122.956 111.001 123.248 111.109 123.536 111.229C123.824 111.349 124.088 111.501 124.328 111.685C124.568 111.869 124.76 112.109 124.904 112.405C125.056 112.693 125.132 113.057 125.132 113.497C125.132 114.233 124.876 114.809 124.364 115.225C123.86 115.641 123.176 115.849 122.312 115.849ZM126.46 115.729V110.029H127.54V115.729H126.46ZM130.312 115.729V112.285C130.312 111.861 130.18 111.529 129.916 111.289C129.66 111.041 129.336 110.917 128.944 110.917C128.68 110.917 128.444 110.973 128.236 111.085C128.028 111.197 127.86 111.353 127.732 111.553C127.604 111.753 127.54 111.993 127.54 112.273L127.096 112.057C127.096 111.625 127.188 111.249 127.372 110.929C127.564 110.609 127.824 110.361 128.152 110.185C128.48 110.001 128.848 109.909 129.256 109.909C129.656 109.909 130.016 109.997 130.336 110.173C130.664 110.349 130.92 110.597 131.104 110.917C131.296 111.237 131.392 111.617 131.392 112.057V115.729H130.312ZM134.164 115.729V112.285C134.164 111.861 134.032 111.529 133.768 111.289C133.512 111.041 133.192 110.917 132.808 110.917C132.544 110.917 132.304 110.973 132.088 111.085C131.88 111.197 131.712 111.353 131.584 111.553C131.456 111.753 131.392 111.993 131.392 112.273L130.78 112.057C130.804 111.617 130.92 111.241 131.128 110.929C131.344 110.609 131.62 110.361 131.956 110.185C132.292 110.001 132.66 109.909 133.06 109.909C133.476 109.909 133.848 109.997 134.176 110.173C134.504 110.349 134.764 110.597 134.956 110.917C135.156 111.237 135.256 111.621 135.256 112.069V115.729H134.164ZM139.15 115.849C138.63 115.849 138.158 115.721 137.734 115.465C137.31 115.201 136.974 114.845 136.726 114.397C136.486 113.949 136.366 113.445 136.366 112.885C136.366 112.325 136.486 111.821 136.726 111.373C136.974 110.925 137.306 110.569 137.722 110.305C138.146 110.041 138.622 109.909 139.15 109.909C139.582 109.909 139.966 110.001 140.302 110.185C140.646 110.361 140.922 110.609 141.13 110.929C141.338 111.241 141.454 111.605 141.478 112.021V113.737C141.454 114.145 141.338 114.509 141.13 114.829C140.93 115.149 140.658 115.401 140.314 115.585C139.978 115.761 139.59 115.849 139.15 115.849ZM139.33 114.829C139.866 114.829 140.298 114.649 140.626 114.289C140.954 113.921 141.118 113.453 141.118 112.885C141.118 112.493 141.042 112.153 140.89 111.865C140.746 111.569 140.538 111.341 140.266 111.181C139.994 111.013 139.678 110.929 139.318 110.929C138.958 110.929 138.638 111.013 138.358 111.181C138.086 111.349 137.87 111.581 137.71 111.877C137.558 112.165 137.482 112.497 137.482 112.873C137.482 113.257 137.558 113.597 137.71 113.893C137.87 114.181 138.09 114.409 138.37 114.577C138.65 114.745 138.97 114.829 139.33 114.829ZM141.046 115.729V114.193L141.25 112.801L141.046 111.421V110.029H142.138V115.729H141.046ZM143.71 115.729V110.029H144.79V115.729H143.71ZM144.79 112.477L144.382 112.297C144.382 111.569 144.55 110.989 144.886 110.557C145.222 110.125 145.706 109.909 146.338 109.909C146.626 109.909 146.886 109.961 147.118 110.065C147.35 110.161 147.566 110.325 147.766 110.557L147.058 111.289C146.938 111.161 146.806 111.069 146.662 111.013C146.518 110.957 146.35 110.929 146.158 110.929C145.758 110.929 145.43 111.057 145.174 111.313C144.918 111.569 144.79 111.957 144.79 112.477ZM149.379 115.729V107.641H150.459V115.729H149.379ZM147.975 111.013V110.029H151.863V111.013H147.975ZM155.385 115.849C154.817 115.849 154.305 115.721 153.849 115.465C153.393 115.201 153.033 114.845 152.769 114.397C152.505 113.949 152.373 113.441 152.373 112.873C152.373 112.313 152.501 111.809 152.757 111.361C153.021 110.913 153.373 110.561 153.813 110.305C154.261 110.041 154.761 109.909 155.313 109.909C155.841 109.909 156.305 110.029 156.705 110.269C157.113 110.509 157.429 110.841 157.653 111.265C157.885 111.689 158.001 112.169 158.001 112.705C158.001 112.785 157.997 112.873 157.989 112.969C157.981 113.057 157.965 113.161 157.941 113.281H153.129V112.381H157.365L156.969 112.729C156.969 112.345 156.901 112.021 156.765 111.757C156.629 111.485 156.437 111.277 156.189 111.133C155.941 110.981 155.641 110.905 155.289 110.905C154.921 110.905 154.597 110.985 154.317 111.145C154.037 111.305 153.821 111.529 153.669 111.817C153.517 112.105 153.441 112.445 153.441 112.837C153.441 113.237 153.521 113.589 153.681 113.893C153.841 114.189 154.069 114.421 154.365 114.589C154.661 114.749 155.001 114.829 155.385 114.829C155.705 114.829 155.997 114.773 156.261 114.661C156.533 114.549 156.765 114.381 156.957 114.157L157.653 114.865C157.381 115.185 157.045 115.429 156.645 115.597C156.253 115.765 155.833 115.849 155.385 115.849ZM159.179 115.729V110.029H160.259V115.729H159.179ZM160.259 112.477L159.851 112.297C159.851 111.569 160.019 110.989 160.355 110.557C160.691 110.125 161.175 109.909 161.807 109.909C162.095 109.909 162.355 109.961 162.587 110.065C162.819 110.161 163.035 110.325 163.235 110.557L162.527 111.289C162.407 111.161 162.275 111.069 162.131 111.013C161.987 110.957 161.819 110.929 161.627 110.929C161.227 110.929 160.899 111.057 160.643 111.313C160.387 111.569 160.259 111.957 160.259 112.477ZM169.114 115.849C168.586 115.849 168.114 115.721 167.698 115.465C167.282 115.201 166.95 114.845 166.702 114.397C166.462 113.949 166.342 113.445 166.342 112.885C166.342 112.325 166.462 111.821 166.702 111.373C166.95 110.925 167.282 110.569 167.698 110.305C168.114 110.041 168.586 109.909 169.114 109.909C169.538 109.909 169.922 110.001 170.266 110.185C170.61 110.361 170.886 110.609 171.094 110.929C171.31 111.241 171.43 111.605 171.454 112.021V113.737C171.43 114.145 171.314 114.509 171.106 114.829C170.898 115.149 170.622 115.401 170.278 115.585C169.934 115.761 169.546 115.849 169.114 115.849ZM169.294 114.829C169.654 114.829 169.966 114.745 170.23 114.577C170.502 114.409 170.714 114.181 170.866 113.893C171.018 113.597 171.094 113.261 171.094 112.885C171.094 112.493 171.014 112.153 170.854 111.865C170.702 111.577 170.49 111.349 170.218 111.181C169.954 111.013 169.642 110.929 169.282 110.929C168.922 110.929 168.606 111.013 168.334 111.181C168.062 111.349 167.846 111.581 167.686 111.877C167.534 112.165 167.458 112.497 167.458 112.873C167.458 113.257 167.534 113.597 167.686 113.893C167.846 114.181 168.062 114.409 168.334 114.577C168.614 114.745 168.934 114.829 169.294 114.829ZM172.114 115.729H171.022V114.193L171.226 112.801L171.022 111.421V107.161H172.114V115.729ZM176.327 115.849C175.759 115.849 175.247 115.721 174.791 115.465C174.335 115.201 173.975 114.845 173.711 114.397C173.447 113.949 173.315 113.441 173.315 112.873C173.315 112.313 173.443 111.809 173.699 111.361C173.963 110.913 174.315 110.561 174.755 110.305C175.203 110.041 175.703 109.909 176.255 109.909C176.783 109.909 177.247 110.029 177.647 110.269C178.055 110.509 178.371 110.841 178.595 111.265C178.827 111.689 178.943 112.169 178.943 112.705C178.943 112.785 178.939 112.873 178.931 112.969C178.923 113.057 178.907 113.161 178.883 113.281H174.071V112.381H178.307L177.911 112.729C177.911 112.345 177.843 112.021 177.707 111.757C177.571 111.485 177.379 111.277 177.131 111.133C176.883 110.981 176.583 110.905 176.231 110.905C175.863 110.905 175.539 110.985 175.259 111.145C174.979 111.305 174.763 111.529 174.611 111.817C174.459 112.105 174.383 112.445 174.383 112.837C174.383 113.237 174.463 113.589 174.623 113.893C174.783 114.189 175.011 114.421 175.307 114.589C175.603 114.749 175.943 114.829 176.327 114.829C176.647 114.829 176.939 114.773 177.203 114.661C177.475 114.549 177.707 114.381 177.899 114.157L178.595 114.865C178.323 115.185 177.987 115.429 177.587 115.597C177.195 115.765 176.775 115.849 176.327 115.849ZM182.724 115.849C182.164 115.849 181.656 115.717 181.2 115.453C180.752 115.189 180.396 114.833 180.132 114.385C179.876 113.929 179.748 113.425 179.748 112.873C179.748 112.313 179.876 111.809 180.132 111.361C180.396 110.913 180.752 110.561 181.2 110.305C181.656 110.041 182.164 109.909 182.724 109.909C183.164 109.909 183.572 109.993 183.948 110.161C184.324 110.321 184.648 110.557 184.92 110.869L184.2 111.589C184.024 111.381 183.808 111.225 183.552 111.121C183.304 111.009 183.028 110.953 182.724 110.953C182.364 110.953 182.044 111.037 181.764 111.205C181.484 111.365 181.264 111.589 181.104 111.877C180.944 112.165 180.864 112.497 180.864 112.873C180.864 113.249 180.944 113.581 181.104 113.869C181.264 114.157 181.484 114.385 181.764 114.553C182.044 114.721 182.364 114.805 182.724 114.805C183.028 114.805 183.304 114.753 183.552 114.649C183.808 114.537 184.028 114.377 184.212 114.169L184.92 114.889C184.656 115.193 184.332 115.429 183.948 115.597C183.572 115.765 183.164 115.849 182.724 115.849ZM186.003 115.729V110.029H187.083V115.729H186.003ZM186.543 108.889C186.343 108.889 186.179 108.825 186.051 108.697C185.923 108.561 185.859 108.393 185.859 108.193C185.859 108.001 185.923 107.841 186.051 107.713C186.179 107.577 186.343 107.509 186.543 107.509C186.743 107.509 186.907 107.577 187.035 107.713C187.163 107.841 187.227 108.001 187.227 108.193C187.227 108.393 187.163 108.561 187.035 108.697C186.907 108.825 186.743 108.889 186.543 108.889ZM190.487 115.849C190.167 115.849 189.863 115.809 189.575 115.729C189.295 115.641 189.035 115.521 188.795 115.369C188.555 115.209 188.347 115.021 188.171 114.805L188.867 114.109C189.075 114.365 189.315 114.557 189.587 114.685C189.859 114.805 190.163 114.865 190.499 114.865C190.835 114.865 191.095 114.809 191.279 114.697C191.463 114.577 191.555 114.413 191.555 114.205C191.555 113.997 191.479 113.837 191.327 113.725C191.183 113.605 190.995 113.509 190.763 113.437C190.531 113.357 190.283 113.281 190.019 113.209C189.763 113.129 189.519 113.029 189.287 112.909C189.055 112.789 188.863 112.625 188.711 112.417C188.567 112.209 188.495 111.933 188.495 111.589C188.495 111.245 188.579 110.949 188.747 110.701C188.915 110.445 189.147 110.249 189.443 110.113C189.747 109.977 190.111 109.909 190.535 109.909C190.983 109.909 191.379 109.989 191.723 110.149C192.075 110.301 192.363 110.533 192.587 110.845L191.891 111.541C191.731 111.333 191.531 111.173 191.291 111.061C191.059 110.949 190.795 110.893 190.499 110.893C190.187 110.893 189.947 110.949 189.779 111.061C189.619 111.165 189.539 111.313 189.539 111.505C189.539 111.697 189.611 111.845 189.755 111.949C189.899 112.053 190.087 112.141 190.319 112.213C190.559 112.285 190.807 112.361 191.063 112.441C191.319 112.513 191.563 112.613 191.795 112.741C192.027 112.869 192.215 113.041 192.359 113.257C192.511 113.473 192.587 113.757 192.587 114.109C192.587 114.645 192.395 115.069 192.011 115.381C191.635 115.693 191.127 115.849 190.487 115.849ZM193.808 115.729V110.029H194.888V115.729H193.808ZM194.348 108.889C194.148 108.889 193.984 108.825 193.856 108.697C193.728 108.561 193.664 108.393 193.664 108.193C193.664 108.001 193.728 107.841 193.856 107.713C193.984 107.577 194.148 107.509 194.348 107.509C194.548 107.509 194.712 107.577 194.84 107.713C194.968 107.841 195.032 108.001 195.032 108.193C195.032 108.393 194.968 108.561 194.84 108.697C194.712 108.825 194.548 108.889 194.348 108.889ZM199.084 115.849C198.524 115.849 198.02 115.717 197.572 115.453C197.124 115.189 196.768 114.833 196.504 114.385C196.24 113.929 196.108 113.421 196.108 112.861C196.108 112.309 196.24 111.813 196.504 111.373C196.768 110.925 197.124 110.569 197.572 110.305C198.02 110.041 198.524 109.909 199.084 109.909C199.636 109.909 200.136 110.041 200.584 110.305C201.04 110.561 201.4 110.913 201.664 111.361C201.928 111.809 202.06 112.309 202.06 112.861C202.06 113.421 201.928 113.929 201.664 114.385C201.4 114.833 201.04 115.189 200.584 115.453C200.136 115.717 199.636 115.849 199.084 115.849ZM199.084 114.805C199.444 114.805 199.764 114.721 200.044 114.553C200.324 114.385 200.544 114.157 200.704 113.869C200.864 113.573 200.944 113.237 200.944 112.861C200.944 112.493 200.86 112.165 200.692 111.877C200.532 111.589 200.312 111.365 200.032 111.205C199.76 111.037 199.444 110.953 199.084 110.953C198.724 110.953 198.404 111.037 198.124 111.205C197.844 111.365 197.624 111.589 197.464 111.877C197.304 112.165 197.224 112.493 197.224 112.861C197.224 113.237 197.304 113.573 197.464 113.869C197.624 114.157 197.844 114.385 198.124 114.553C198.404 114.721 198.724 114.805 199.084 114.805ZM207.308 115.729V112.405C207.308 111.973 207.172 111.617 206.9 111.337C206.628 111.057 206.276 110.917 205.844 110.917C205.556 110.917 205.3 110.981 205.076 111.109C204.852 111.237 204.676 111.413 204.548 111.637C204.42 111.861 204.356 112.117 204.356 112.405L203.912 112.153C203.912 111.721 204.008 111.337 204.2 111.001C204.392 110.665 204.66 110.401 205.004 110.209C205.348 110.009 205.736 109.909 206.168 109.909C206.6 109.909 206.98 110.017 207.308 110.233C207.644 110.449 207.908 110.733 208.1 111.085C208.292 111.429 208.388 111.797 208.388 112.189V115.729H207.308ZM203.276 115.729V110.029H204.356V115.729H203.276ZM209.851 113.185V112.165H213.799V113.185H209.851ZM215.382 115.729V110.029H216.462V115.729H215.382ZM219.234 115.729V112.285C219.234 111.861 219.102 111.529 218.838 111.289C218.582 111.041 218.258 110.917 217.866 110.917C217.602 110.917 217.366 110.973 217.158 111.085C216.95 111.197 216.782 111.353 216.654 111.553C216.526 111.753 216.462 111.993 216.462 112.273L216.018 112.057C216.018 111.625 216.11 111.249 216.294 110.929C216.486 110.609 216.746 110.361 217.074 110.185C217.402 110.001 217.77 109.909 218.178 109.909C218.578 109.909 218.938 109.997 219.258 110.173C219.586 110.349 219.842 110.597 220.026 110.917C220.218 111.237 220.314 111.617 220.314 112.057V115.729H219.234ZM223.086 115.729V112.285C223.086 111.861 222.954 111.529 222.69 111.289C222.434 111.041 222.114 110.917 221.73 110.917C221.466 110.917 221.226 110.973 221.01 111.085C220.802 111.197 220.634 111.353 220.506 111.553C220.378 111.753 220.314 111.993 220.314 112.273L219.702 112.057C219.726 111.617 219.842 111.241 220.05 110.929C220.266 110.609 220.542 110.361 220.878 110.185C221.214 110.001 221.582 109.909 221.982 109.909C222.398 109.909 222.77 109.997 223.098 110.173C223.426 110.349 223.686 110.597 223.878 110.917C224.078 111.237 224.178 111.621 224.178 112.069V115.729H223.086ZM228.071 115.849C227.551 115.849 227.079 115.721 226.655 115.465C226.231 115.201 225.895 114.845 225.647 114.397C225.407 113.949 225.287 113.445 225.287 112.885C225.287 112.325 225.407 111.821 225.647 111.373C225.895 110.925 226.227 110.569 226.643 110.305C227.067 110.041 227.543 109.909 228.071 109.909C228.503 109.909 228.887 110.001 229.223 110.185C229.567 110.361 229.843 110.609 230.051 110.929C230.259 111.241 230.375 111.605 230.399 112.021V113.737C230.375 114.145 230.259 114.509 230.051 114.829C229.851 115.149 229.579 115.401 229.235 115.585C228.899 115.761 228.511 115.849 228.071 115.849ZM228.251 114.829C228.787 114.829 229.219 114.649 229.547 114.289C229.875 113.921 230.039 113.453 230.039 112.885C230.039 112.493 229.963 112.153 229.811 111.865C229.667 111.569 229.459 111.341 229.187 111.181C228.915 111.013 228.599 110.929 228.239 110.929C227.879 110.929 227.559 111.013 227.279 111.181C227.007 111.349 226.791 111.581 226.631 111.877C226.479 112.165 226.403 112.497 226.403 112.873C226.403 113.257 226.479 113.597 226.631 113.893C226.791 114.181 227.011 114.409 227.291 114.577C227.571 114.745 227.891 114.829 228.251 114.829ZM229.967 115.729V114.193L230.171 112.801L229.967 111.421V110.029H231.059V115.729H229.967ZM236.28 115.729L233.616 112.813L236.256 110.029H237.564L234.624 113.101L234.672 112.477L237.672 115.729H236.28ZM232.632 115.729V107.161H233.712V115.729H232.632ZM238.409 115.729V110.029H239.489V115.729H238.409ZM238.949 108.889C238.749 108.889 238.585 108.825 238.457 108.697C238.329 108.561 238.265 108.393 238.265 108.193C238.265 108.001 238.329 107.841 238.457 107.713C238.585 107.577 238.749 107.509 238.949 107.509C239.149 107.509 239.313 107.577 239.441 107.713C239.569 107.841 239.633 108.001 239.633 108.193C239.633 108.393 239.569 108.561 239.441 108.697C239.313 108.825 239.149 108.889 238.949 108.889ZM245.113 115.729V112.405C245.113 111.973 244.977 111.617 244.705 111.337C244.433 111.057 244.081 110.917 243.649 110.917C243.361 110.917 243.105 110.981 242.881 111.109C242.657 111.237 242.481 111.413 242.353 111.637C242.225 111.861 242.161 112.117 242.161 112.405L241.717 112.153C241.717 111.721 241.813 111.337 242.005 111.001C242.197 110.665 242.465 110.401 242.809 110.209C243.153 110.009 243.541 109.909 243.973 109.909C244.405 109.909 244.785 110.017 245.113 110.233C245.449 110.449 245.713 110.733 245.905 111.085C246.097 111.429 246.193 111.797 246.193 112.189V115.729H245.113ZM241.081 115.729V110.029H242.161V115.729H241.081ZM250.019 118.237C249.435 118.237 248.915 118.129 248.459 117.913C248.011 117.697 247.651 117.393 247.379 117.001L248.075 116.293C248.307 116.589 248.583 116.813 248.903 116.965C249.223 117.125 249.603 117.205 250.043 117.205C250.627 117.205 251.087 117.049 251.423 116.737C251.767 116.433 251.939 116.021 251.939 115.501V114.085L252.131 112.801L251.939 111.529V110.029H253.019V115.501C253.019 116.045 252.891 116.521 252.635 116.929C252.387 117.337 252.035 117.657 251.579 117.889C251.131 118.121 250.611 118.237 250.019 118.237ZM250.019 115.633C249.499 115.633 249.031 115.509 248.615 115.261C248.207 115.013 247.883 114.673 247.643 114.241C247.403 113.801 247.283 113.309 247.283 112.765C247.283 112.221 247.403 111.737 247.643 111.313C247.883 110.881 248.207 110.541 248.615 110.293C249.031 110.037 249.499 109.909 250.019 109.909C250.467 109.909 250.863 109.997 251.207 110.173C251.551 110.349 251.823 110.597 252.023 110.917C252.231 111.229 252.343 111.597 252.359 112.021V113.533C252.335 113.949 252.219 114.317 252.011 114.637C251.811 114.949 251.539 115.193 251.195 115.369C250.851 115.545 250.459 115.633 250.019 115.633ZM250.235 114.613C250.587 114.613 250.895 114.537 251.159 114.385C251.431 114.233 251.639 114.021 251.783 113.749C251.927 113.469 251.999 113.145 251.999 112.777C251.999 112.409 251.923 112.089 251.771 111.817C251.627 111.537 251.423 111.321 251.159 111.169C250.895 111.009 250.583 110.929 250.223 110.929C249.863 110.929 249.547 111.009 249.275 111.169C249.003 111.321 248.787 111.537 248.627 111.817C248.475 112.089 248.399 112.405 248.399 112.765C248.399 113.125 248.475 113.445 248.627 113.725C248.787 114.005 249.003 114.225 249.275 114.385C249.555 114.537 249.875 114.613 250.235 114.613Z" fill="#4D525F"/>
</g>
<defs>
<filter id="filter0_dd_2167_758" x="-0.000148773" y="-2.86102e-05" width="295.417" height="189.74" filterUnits="userSpaceOnUse" color-interpolation-filters="sRGB">
<feFlood flood-opacity="0" result="BackgroundImageFix"/>
<feColorMatrix in="SourceAlpha" type="matrix" values="0 0 0 0 0 0 0 0 0 0 0 0 0 0 0 0 0 0 127 0" result="hardAlpha"/>
<feOffset dx="-20.4047" dy="20.4047"/>
<feGaussianBlur stdDeviation="15.3036"/>
<feComposite in2="hardAlpha" operator="out"/>
<feColorMatrix type="matrix" values="0 0 0 0 0.180392 0 0 0 0 0.407843 0 0 0 0 0.992157 0 0 0 0.08 0"/>
<feBlend mode="normal" in2="BackgroundImageFix" result="effect1_dropShadow_2167_758"/>
<feColorMatrix in="SourceAlpha" type="matrix" values="0 0 0 0 0 0 0 0 0 0 0 0 0 0 0 0 0 0 127 0" result="hardAlpha"/>
<feOffset dy="-16.3238"/>
<feGaussianBlur stdDeviation="10.2024"/>
<feComposite in2="hardAlpha" operator="out"/>
<feColorMatrix type="matrix" values="0 0 0 0 0.180392 0 0 0 0 0.407843 0 0 0 0 0.992157 0 0 0 0.04 0"/>
<feBlend mode="normal" in2="effect1_dropShadow_2167_758" result="effect2_dropShadow_2167_758"/>
<feBlend mode="normal" in="SourceGraphic" in2="effect2_dropShadow_2167_758" result="shape"/>
</filter>
</defs>
</svg>
