<svg width="285" height="205" viewBox="0 0 285 205" fill="none" xmlns="http://www.w3.org/2000/svg">
<g filter="url(#filter0_dd_83_3381)">
<rect x="52" y="37" width="211.7" height="116.052" rx="8.1619" fill="white" shape-rendering="crispEdges"/>
<path d="M73.3842 73.4048V61.9781H77.3182C77.9331 61.9781 78.4881 62.1305 78.9832 62.4352C79.4838 62.7399 79.881 63.1507 80.1749 63.6676C80.4741 64.1846 80.6238 64.7559 80.6238 65.3816C80.6238 66.0183 80.4714 66.595 80.1667 67.112C79.8674 67.6234 79.4675 68.0315 78.9669 68.3362C78.4663 68.641 77.9167 68.7933 77.3182 68.7933H75.0818V73.4048H73.3842ZM75.0818 67.0956H77.1468C77.4733 67.0956 77.7698 67.014 78.0364 66.8508C78.3085 66.6875 78.5234 66.4699 78.6812 66.1978C78.8445 65.9258 78.9261 65.6183 78.9261 65.2755C78.9261 64.9327 78.8445 64.6253 78.6812 64.3532C78.5234 64.0757 78.3085 63.8581 78.0364 63.7003C77.7698 63.537 77.4733 63.4554 77.1468 63.4554H75.0818V67.0956ZM87.9119 65.2429H89.6096V73.4048H87.9038L87.8385 72.2213C87.5991 72.6403 87.2753 72.9776 86.8672 73.2334C86.4591 73.4891 85.9776 73.617 85.4226 73.617C84.824 73.617 84.2609 73.5054 83.7331 73.2824C83.2053 73.0538 82.74 72.7382 82.3374 72.3356C81.9402 71.9329 81.63 71.4704 81.4069 70.9481C81.1838 70.4203 81.0723 69.8544 81.0723 69.2504C81.0723 68.6682 81.1811 68.1213 81.3988 67.6098C81.6164 67.0929 81.9184 66.6413 82.3047 66.255C82.6911 65.8686 83.1372 65.5666 83.6433 65.349C84.1548 65.1259 84.7016 65.0144 85.2838 65.0144C85.8769 65.0144 86.3993 65.1504 86.8509 65.4224C87.308 65.6891 87.6861 66.0319 87.9854 66.4508L87.9119 65.2429ZM85.3818 71.9765C85.8606 71.9765 86.2796 71.8595 86.6387 71.6255C86.9978 71.3861 87.2753 71.065 87.4712 70.6624C87.6725 70.2597 87.7732 69.8135 87.7732 69.3238C87.7732 68.8287 87.6725 68.3798 87.4712 67.9771C87.2699 67.5745 86.9897 67.2562 86.6305 67.0222C86.2768 66.7828 85.8606 66.6631 85.3818 66.6631C84.9084 66.6631 84.4758 66.7828 84.084 67.0222C83.6922 67.2616 83.3821 67.5826 83.1536 67.9853C82.925 68.3879 82.8108 68.8341 82.8108 69.3238C82.8108 69.819 82.9277 70.2679 83.1617 70.6705C83.4011 71.0678 83.714 71.3861 84.1003 71.6255C84.4921 71.8595 84.9193 71.9765 85.3818 71.9765ZM96.4785 65.2429H98.2904L93.8177 77.4857H92.0139L93.4912 73.4048L90.5611 65.2429H92.4139L94.3401 71.0786L96.4785 65.2429ZM99.6712 73.4048V65.2429H101.369V66.108C101.652 65.7707 101.997 65.5041 102.405 65.3082C102.819 65.1123 103.265 65.0144 103.744 65.0144C104.326 65.0144 104.862 65.1558 105.352 65.4388C105.842 65.7163 106.231 66.0863 106.519 66.5488C106.807 66.0863 107.191 65.7163 107.67 65.4388C108.154 65.1558 108.687 65.0144 109.27 65.0144C109.874 65.0144 110.423 65.1613 110.918 65.4551C111.413 65.7489 111.808 66.1434 112.102 66.6386C112.396 67.1337 112.543 67.6833 112.543 68.2873V73.4048H110.845V68.7199C110.845 68.3607 110.758 68.0315 110.584 67.7323C110.41 67.433 110.176 67.1909 109.882 67.0059C109.588 66.8209 109.261 66.7284 108.902 66.7284C108.543 66.7284 108.217 66.8154 107.923 66.9895C107.629 67.1637 107.395 67.4003 107.221 67.6996C107.047 67.9989 106.96 68.339 106.96 68.7199V73.4048H105.262V68.7199C105.262 68.339 105.175 67.9989 105.001 67.6996C104.827 67.4003 104.59 67.1637 104.291 66.9895C103.997 66.8154 103.671 66.7284 103.311 66.7284C102.958 66.7284 102.631 66.8209 102.332 67.0059C102.038 67.1909 101.804 67.433 101.63 67.7323C101.456 68.0315 101.369 68.3607 101.369 68.7199V73.4048H99.6712ZM117.61 73.617C116.859 73.617 116.173 73.4238 115.553 73.0375C114.938 72.6512 114.445 72.1342 114.075 71.4867C113.711 70.8338 113.529 70.1128 113.529 69.3238C113.529 68.7253 113.635 68.1676 113.847 67.6506C114.059 67.1283 114.35 66.6712 114.72 66.2794C115.096 65.8822 115.531 65.5721 116.026 65.349C116.521 65.1259 117.049 65.0144 117.61 65.0144C118.235 65.0144 118.809 65.1449 119.332 65.4061C119.854 65.6619 120.3 66.0183 120.67 66.4753C121.04 66.927 121.312 67.4493 121.486 68.0424C121.661 68.6301 121.712 69.2558 121.642 69.9197H115.349C115.419 70.2951 115.555 70.6352 115.757 70.9399C115.964 71.2392 116.225 71.4759 116.54 71.65C116.861 71.8241 117.218 71.9139 117.61 71.9193C118.023 71.9193 118.399 71.8159 118.736 71.6092C119.079 71.4024 119.359 71.1167 119.577 70.7522L121.299 71.1521C120.972 71.8758 120.48 72.4689 119.821 72.9314C119.163 73.3885 118.426 73.617 117.61 73.617ZM115.292 68.6219H119.928C119.873 68.2301 119.734 67.8765 119.511 67.5609C119.294 67.2398 119.019 66.9868 118.687 66.8018C118.36 66.6114 118.001 66.5161 117.61 66.5161C117.223 66.5161 116.864 66.6086 116.532 66.7936C116.206 66.9787 115.934 67.2317 115.716 67.5527C115.504 67.8683 115.362 68.2247 115.292 68.6219ZM130.339 68.2873V73.4048H128.641V68.7035C128.641 68.339 128.551 68.007 128.372 67.7078C128.198 67.4085 127.961 67.1718 127.662 66.9977C127.368 66.8181 127.036 66.7284 126.666 66.7284C126.307 66.7284 125.978 66.8181 125.678 66.9977C125.379 67.1718 125.14 67.4085 124.96 67.7078C124.781 68.007 124.691 68.339 124.691 68.7035V73.4048H122.993V65.2429H124.691V66.108C124.974 65.7707 125.322 65.5041 125.736 65.3082C126.149 65.1123 126.595 65.0144 127.074 65.0144C127.678 65.0144 128.228 65.1613 128.723 65.4551C129.218 65.7489 129.61 66.1434 129.898 66.6386C130.192 67.1337 130.339 67.6833 130.339 68.2873ZM136.278 66.9406H134.564L134.555 73.4048H132.858L132.866 66.9406H131.568V65.2429H132.866L132.858 62.6801H134.555L134.564 65.2429H136.278V66.9406ZM141.66 73.4048V61.9781H145.864C146.484 61.9781 147.042 62.1305 147.537 62.4352C148.032 62.7399 148.424 63.1507 148.712 63.6676C149.006 64.1791 149.153 64.7505 149.153 65.3816C149.153 65.9149 149.052 66.4019 148.851 66.8426C148.655 67.2834 148.378 67.6588 148.018 67.969C147.665 68.2791 147.259 68.5022 146.802 68.6382L149.561 73.4048H147.594L144.917 68.7933H143.358V73.4048H141.66ZM143.358 67.0956H145.684C146.011 67.0956 146.307 67.014 146.574 66.8508C146.846 66.6875 147.061 66.4699 147.219 66.1978C147.376 65.9258 147.455 65.6183 147.455 65.2755C147.455 64.9327 147.376 64.6253 147.219 64.3532C147.061 64.0757 146.846 63.8581 146.574 63.7003C146.307 63.537 146.011 63.4554 145.684 63.4554H143.358V67.0956ZM154.322 73.617C153.571 73.617 152.886 73.4238 152.265 73.0375C151.65 72.6512 151.158 72.1342 150.788 71.4867C150.423 70.8338 150.241 70.1128 150.241 69.3238C150.241 68.7253 150.347 68.1676 150.559 67.6506C150.772 67.1283 151.063 66.6712 151.433 66.2794C151.808 65.8822 152.244 65.5721 152.739 65.349C153.234 65.1259 153.762 65.0144 154.322 65.0144C154.948 65.0144 155.522 65.1449 156.044 65.4061C156.567 65.6619 157.013 66.0183 157.383 66.4753C157.753 66.927 158.025 67.4493 158.199 68.0424C158.373 68.6301 158.425 69.2558 158.354 69.9197H152.061C152.132 70.2951 152.268 70.6352 152.469 70.9399C152.676 71.2392 152.937 71.4759 153.253 71.65C153.574 71.8241 153.93 71.9139 154.322 71.9193C154.736 71.9193 155.111 71.8159 155.448 71.6092C155.791 71.4024 156.071 71.1167 156.289 70.7522L158.011 71.1521C157.685 71.8758 157.192 72.4689 156.534 72.9314C155.876 73.3885 155.138 73.617 154.322 73.617ZM152.004 68.6219H156.64C156.586 68.2301 156.447 67.8765 156.224 67.5609C156.006 67.2398 155.731 66.9868 155.399 66.8018C155.073 66.6114 154.714 66.5161 154.322 66.5161C153.936 66.5161 153.577 66.6086 153.245 66.7936C152.918 66.9787 152.646 67.2317 152.429 67.5527C152.216 67.8683 152.075 68.2247 152.004 68.6219ZM165.02 71.0868L166.538 71.9112C166.168 72.4281 165.697 72.8416 165.126 73.1518C164.56 73.4619 163.945 73.617 163.281 73.617C162.53 73.617 161.845 73.4238 161.224 73.0375C160.609 72.6512 160.117 72.1342 159.747 71.4867C159.382 70.8338 159.2 70.1128 159.2 69.3238C159.2 68.7253 159.306 68.1676 159.518 67.6506C159.731 67.1283 160.022 66.6712 160.392 66.2794C160.767 65.8822 161.203 65.5721 161.698 65.349C162.193 65.1259 162.721 65.0144 163.281 65.0144C163.945 65.0144 164.56 65.1694 165.126 65.4796C165.697 65.7897 166.168 66.206 166.538 66.7284L165.02 67.5527C164.791 67.2806 164.524 67.0739 164.22 66.9324C163.915 66.7855 163.602 66.712 163.281 66.712C162.835 66.712 162.43 66.8345 162.065 67.0793C161.706 67.3187 161.42 67.637 161.208 68.0343C161.001 68.426 160.898 68.8559 160.898 69.3238C160.898 69.7863 161.004 70.2162 161.216 70.6134C161.428 71.0052 161.714 71.3208 162.073 71.5602C162.438 71.7996 162.84 71.9193 163.281 71.9193C163.618 71.9193 163.939 71.8431 164.244 71.6908C164.549 71.5384 164.807 71.3371 165.02 71.0868ZM171.395 73.617C170.644 73.617 169.959 73.4238 169.338 73.0375C168.724 72.6512 168.231 72.1342 167.861 71.4867C167.496 70.8338 167.314 70.1128 167.314 69.3238C167.314 68.7253 167.42 68.1676 167.633 67.6506C167.845 67.1283 168.136 66.6712 168.506 66.2794C168.881 65.8822 169.317 65.5721 169.812 65.349C170.307 65.1259 170.835 65.0144 171.395 65.0144C172.021 65.0144 172.595 65.1449 173.117 65.4061C173.64 65.6619 174.086 66.0183 174.456 66.4753C174.826 66.927 175.098 67.4493 175.272 68.0424C175.446 68.6301 175.498 69.2558 175.427 69.9197H169.134C169.205 70.2951 169.341 70.6352 169.542 70.9399C169.749 71.2392 170.01 71.4759 170.326 71.65C170.647 71.8241 171.003 71.9139 171.395 71.9193C171.809 71.9193 172.184 71.8159 172.522 71.6092C172.864 71.4024 173.145 71.1167 173.362 70.7522L175.084 71.1521C174.758 71.8758 174.265 72.4689 173.607 72.9314C172.949 73.3885 172.211 73.617 171.395 73.617ZM169.077 68.6219H173.713C173.659 68.2301 173.52 67.8765 173.297 67.5609C173.079 67.2398 172.804 66.9868 172.473 66.8018C172.146 66.6114 171.787 66.5161 171.395 66.5161C171.009 66.5161 170.65 66.6086 170.318 66.7936C169.991 66.9787 169.719 67.2317 169.502 67.5527C169.289 67.8683 169.148 68.2247 169.077 68.6219ZM176.619 65.2429H178.317V73.4048H176.619V65.2429ZM177.485 64.0594C177.223 64.0594 177.006 63.9751 176.832 63.8064C176.658 63.6377 176.57 63.4255 176.57 63.1698C176.57 62.9195 176.658 62.71 176.832 62.5413C177.006 62.3672 177.221 62.2801 177.476 62.2801C177.727 62.2801 177.939 62.3672 178.113 62.5413C178.287 62.71 178.374 62.9195 178.374 63.1698C178.374 63.4255 178.287 63.6377 178.113 63.8064C177.944 63.9751 177.735 64.0594 177.485 64.0594ZM184.731 73.4048H182.552L179.573 65.2266H181.385L183.638 71.4459L185.898 65.2266H187.702L184.731 73.4048ZM192.23 73.617C191.479 73.617 190.794 73.4238 190.174 73.0375C189.559 72.6512 189.066 72.1342 188.696 71.4867C188.332 70.8338 188.149 70.1128 188.149 69.3238C188.149 68.7253 188.255 68.1676 188.468 67.6506C188.68 67.1283 188.971 66.6712 189.341 66.2794C189.716 65.8822 190.152 65.5721 190.647 65.349C191.142 65.1259 191.67 65.0144 192.23 65.0144C192.856 65.0144 193.43 65.1449 193.952 65.4061C194.475 65.6619 194.921 66.0183 195.291 66.4753C195.661 66.927 195.933 67.4493 196.107 68.0424C196.281 68.6301 196.333 69.2558 196.262 69.9197H189.969C190.04 70.2951 190.176 70.6352 190.378 70.9399C190.584 71.2392 190.846 71.4759 191.161 71.65C191.482 71.8241 191.839 71.9139 192.23 71.9193C192.644 71.9193 193.019 71.8159 193.357 71.6092C193.699 71.4024 193.98 71.1167 194.197 70.7522L195.92 71.1521C195.593 71.8758 195.101 72.4689 194.442 72.9314C193.784 73.3885 193.047 73.617 192.23 73.617ZM189.912 68.6219H194.548C194.494 68.2301 194.355 67.8765 194.132 67.5609C193.914 67.2398 193.64 66.9868 193.308 66.8018C192.981 66.6114 192.622 66.5161 192.23 66.5161C191.844 66.5161 191.485 66.6086 191.153 66.7936C190.826 66.9787 190.554 67.2317 190.337 67.5527C190.125 67.8683 189.983 68.2247 189.912 68.6219ZM203.956 61.1619H205.654V73.4048H203.956V72.205C203.69 72.6294 203.341 72.9722 202.911 73.2334C202.482 73.4891 201.978 73.617 201.401 73.617C200.808 73.617 200.253 73.5054 199.736 73.2824C199.22 73.0593 198.762 72.7518 198.365 72.3601C197.973 71.9628 197.666 71.5058 197.443 70.9889C197.22 70.4719 197.108 69.9169 197.108 69.3238C197.108 68.7307 197.22 68.1757 197.443 67.6588C197.666 67.1364 197.973 66.6794 198.365 66.2876C198.762 65.8904 199.22 65.5802 199.736 65.3572C200.253 65.1341 200.808 65.0225 201.401 65.0225C201.978 65.0225 202.482 65.1531 202.911 65.4143C203.341 65.67 203.69 66.0074 203.956 66.4264V61.1619ZM201.418 71.9765C201.897 71.9765 202.316 71.8595 202.675 71.6255C203.034 71.3861 203.311 71.065 203.507 70.6624C203.709 70.2597 203.809 69.8135 203.809 69.3238C203.809 68.8287 203.709 68.3798 203.507 67.9771C203.306 67.5745 203.026 67.2562 202.667 67.0222C202.313 66.7828 201.897 66.6631 201.418 66.6631C200.944 66.6631 200.512 66.7828 200.12 67.0222C199.734 67.2616 199.424 67.5826 199.19 67.9853C198.961 68.3879 198.847 68.8341 198.847 69.3238C198.847 69.819 198.964 70.2679 199.198 70.6705C199.437 71.0678 199.75 71.3861 200.136 71.6255C200.528 71.8595 200.955 71.9765 201.418 71.9765Z" fill="#01081B"/>
<path d="M76.6101 97.5676V94.0968H73.1393V91.8563H76.6101V88.3855H78.8506V91.8563H82.3214V94.0968H78.8506V97.5676H76.6101ZM87.7495 98.7246C86.9721 98.7246 86.2712 98.5409 85.6468 98.1736C85.0224 97.8064 84.5266 97.3136 84.1593 96.6953C83.792 96.0709 83.6084 95.3792 83.6084 94.6202H85.8488C85.8488 94.963 85.9284 95.2752 86.0875 95.5567C86.2528 95.8383 86.4793 96.0648 86.767 96.2362C87.0547 96.4015 87.3822 96.4841 87.7495 96.4841C88.0862 96.4841 88.3984 96.4015 88.6861 96.2362C88.9799 96.0648 89.2156 95.8383 89.3931 95.5567C89.5706 95.2752 89.6594 94.963 89.6594 94.6202C89.6594 94.1733 89.54 93.8029 89.3013 93.5091C89.0626 93.2092 88.7289 92.9857 88.3004 92.8388C87.8781 92.6919 87.3853 92.6185 86.8221 92.6185V90.8922C87.5812 90.8922 88.1811 90.7484 88.6218 90.4607C89.0687 90.1729 89.2921 89.7506 89.2921 89.1935C89.2921 88.9058 89.2187 88.6426 89.0717 88.4039C88.9248 88.1651 88.7289 87.9754 88.4841 87.8346C88.2453 87.6876 87.9821 87.6142 87.6944 87.6142C87.4006 87.6142 87.1159 87.6876 86.8405 87.8346C86.565 87.9754 86.3385 88.1651 86.161 88.4039C85.9896 88.6426 85.9039 88.9058 85.9039 89.1935H83.6635C83.6635 88.6671 83.7706 88.1743 83.9848 87.7152C84.1991 87.25 84.4929 86.8429 84.8663 86.494C85.2458 86.145 85.6743 85.8726 86.1518 85.6768C86.6354 85.4748 87.1404 85.3737 87.6669 85.3737C88.3586 85.3737 88.9983 85.5451 89.5859 85.8879C90.1736 86.2307 90.6449 86.6899 91 87.2653C91.355 87.8407 91.5325 88.4834 91.5325 89.1935C91.5325 89.6894 91.4162 90.176 91.1836 90.6535C90.951 91.1309 90.6205 91.4676 90.192 91.6635C90.5654 91.7982 90.8776 92.0247 91.1285 92.343C91.3795 92.6552 91.5693 93.0133 91.6978 93.4173C91.8325 93.8152 91.8998 94.2161 91.8998 94.6202C91.8998 95.3731 91.7101 96.0618 91.3305 96.6861C90.951 97.3044 90.446 97.8002 89.8155 98.1736C89.1911 98.5409 88.5024 98.7246 87.7495 98.7246ZM97.505 98.7246C96.6786 98.7246 95.9317 98.5256 95.2645 98.1277C94.5973 97.7237 94.0678 97.1881 93.676 96.5209C93.2904 95.8536 93.0975 95.1221 93.0975 94.3263H95.338C95.338 94.7242 95.4359 95.0884 95.6318 95.419C95.8277 95.7434 96.0878 96.0036 96.4123 96.1995C96.7428 96.3893 97.1071 96.4841 97.505 96.4841C97.9028 96.4841 98.264 96.3893 98.5884 96.1995C98.9129 96.0036 99.173 95.7434 99.3689 95.419C99.5648 95.0884 99.6628 94.7242 99.6628 94.3263C99.6628 93.9284 99.5771 93.5642 99.4057 93.2337C99.2404 92.897 98.968 92.6307 98.5884 92.4348C98.215 92.2328 97.7192 92.1318 97.1009 92.1318H93.7954L95.1543 85.6308H101.472V87.8713H96.9724L96.5592 89.8914L97.4682 89.9005C98.3375 89.9311 99.1057 90.1423 99.7729 90.5341C100.44 90.9259 100.961 91.4523 101.334 92.1134C101.713 92.7684 101.903 93.5061 101.903 94.3263C101.903 94.9262 101.79 95.4925 101.563 96.025C101.337 96.5576 101.022 97.0259 100.618 97.4299C100.214 97.8339 99.7454 98.1522 99.2128 98.3848C98.6864 98.6113 98.1171 98.7246 97.505 98.7246ZM103.734 99.5142L104.304 96.4107H106.544L105.231 99.5142H103.734ZM112.64 98.7246C111.85 98.7246 111.134 98.544 110.491 98.1828C109.848 97.8217 109.334 97.3381 108.949 96.7321C108.569 96.1199 108.379 95.4404 108.379 94.6936C108.379 94.106 108.511 93.555 108.774 93.0408C109.044 92.5205 109.405 92.0828 109.858 91.7278C109.503 91.4034 109.212 91.0208 108.985 90.58C108.765 90.1332 108.655 89.6557 108.655 89.1476C108.655 88.4559 108.835 87.8254 109.197 87.2561C109.558 86.6868 110.038 86.2338 110.638 85.8971C111.244 85.5605 111.911 85.3921 112.64 85.3921C113.374 85.3921 114.042 85.5605 114.642 85.8971C115.241 86.2338 115.722 86.6868 116.083 87.2561C116.444 87.8254 116.625 88.4559 116.625 89.1476C116.625 89.6557 116.515 90.1332 116.294 90.58C116.08 91.0208 115.789 91.4034 115.422 91.7278C115.887 92.0828 116.251 92.5205 116.515 93.0408C116.784 93.555 116.919 94.106 116.919 94.6936C116.919 95.4343 116.726 96.1107 116.34 96.7229C115.961 97.3289 115.447 97.8155 114.798 98.1828C114.149 98.544 113.43 98.7246 112.64 98.7246ZM112.64 96.4841C112.995 96.4841 113.316 96.4046 113.604 96.2454C113.892 96.0801 114.121 95.8628 114.293 95.5935C114.464 95.3241 114.55 95.0242 114.55 94.6936C114.55 94.3631 114.464 94.0631 114.293 93.7938C114.121 93.5244 113.892 93.3102 113.604 93.151C113.316 92.9857 112.995 92.9031 112.64 92.9031C112.291 92.9031 111.973 92.9857 111.685 93.151C111.397 93.3102 111.165 93.5244 110.987 93.7938C110.816 94.0631 110.73 94.3631 110.73 94.6936C110.73 95.0242 110.816 95.3241 110.987 95.5935C111.165 95.8628 111.397 96.0801 111.685 96.2454C111.973 96.4046 112.291 96.4841 112.64 96.4841ZM112.64 90.6627C112.94 90.6627 113.212 90.5953 113.457 90.4607C113.702 90.3199 113.895 90.1362 114.036 89.9097C114.182 89.6832 114.256 89.4292 114.256 89.1476C114.256 88.866 114.182 88.612 114.036 88.3855C113.895 88.159 113.702 87.9784 113.457 87.8437C113.212 87.703 112.94 87.6326 112.64 87.6326C112.346 87.6326 112.077 87.703 111.832 87.8437C111.587 87.9784 111.391 88.159 111.244 88.3855C111.097 88.612 111.024 88.866 111.024 89.1476C111.024 89.4292 111.097 89.6832 111.244 89.9097C111.391 90.1362 111.587 90.3199 111.832 90.4607C112.077 90.5953 112.346 90.6627 112.64 90.6627ZM120.315 98.4858L122.785 94.2161C122.179 94.2529 121.6 94.1702 121.049 93.9682C120.504 93.7662 120.018 93.4663 119.589 93.0684C119.161 92.6705 118.821 92.1991 118.57 91.6543C118.325 91.1095 118.203 90.5188 118.203 89.8822C118.203 89.2639 118.319 88.6854 118.552 88.1468C118.784 87.6019 119.106 87.1245 119.516 86.7143C119.932 86.2981 120.41 85.9736 120.948 85.741C121.493 85.5084 122.078 85.3921 122.702 85.3921C123.516 85.3921 124.26 85.5941 124.933 85.9981C125.613 86.4021 126.155 86.9439 126.559 87.6234C126.969 88.3028 127.174 89.0558 127.174 89.8822C127.174 90.2923 127.122 90.681 127.018 91.0483C126.92 91.4095 126.764 91.7768 126.549 92.1502L122.904 98.4858H120.315ZM122.684 92.1318C123.124 92.1318 123.513 92.0247 123.85 91.8104C124.193 91.5962 124.459 91.3177 124.649 90.9749C124.838 90.6321 124.933 90.2648 124.933 89.873C124.933 89.4445 124.829 89.0619 124.621 88.7252C124.413 88.3824 124.138 88.1161 123.795 87.9264C123.452 87.7305 123.088 87.6326 122.702 87.6326C122.261 87.6326 121.87 87.7397 121.527 87.9539C121.19 88.1621 120.924 88.4375 120.728 88.7803C120.532 89.1231 120.434 89.4873 120.434 89.873C120.434 90.2831 120.532 90.6596 120.728 91.0024C120.93 91.3452 121.199 91.6207 121.536 91.8288C121.879 92.0308 122.261 92.1318 122.684 92.1318ZM133.286 98.7246C132.539 98.7246 131.86 98.5532 131.247 98.2104C130.635 97.8615 130.106 97.3809 129.659 96.7688C129.218 96.1566 128.878 95.4496 128.64 94.6477C128.401 93.8397 128.282 92.9766 128.282 92.0583C128.282 91.1401 128.401 90.2801 128.64 89.4782C128.878 88.6701 129.218 87.9601 129.659 87.3479C130.106 86.7358 130.635 86.2583 131.247 85.9155C131.86 85.5666 132.539 85.3921 133.286 85.3921C134.033 85.3921 134.712 85.5666 135.324 85.9155C135.936 86.2583 136.46 86.7358 136.894 87.3479C137.335 87.9601 137.675 88.6701 137.914 89.4782C138.159 90.2801 138.281 91.1401 138.281 92.0583C138.281 92.9766 138.159 93.8397 137.914 94.6477C137.675 95.4496 137.335 96.1566 136.894 96.7688C136.46 97.3809 135.936 97.8615 135.324 98.2104C134.712 98.5532 134.033 98.7246 133.286 98.7246ZM133.286 96.4841C133.941 96.4841 134.483 96.276 134.911 95.8597C135.34 95.4435 135.658 94.8987 135.866 94.2253C136.074 93.552 136.178 92.8296 136.178 92.0583C136.178 91.2442 136.068 90.5035 135.848 89.8363C135.627 89.1629 135.303 88.6273 134.874 88.2294C134.446 87.8315 133.916 87.6326 133.286 87.6326C132.79 87.6326 132.358 87.755 131.991 87.9998C131.63 88.2386 131.33 88.5661 131.091 88.9823C130.853 89.3986 130.675 89.873 130.559 90.4056C130.442 90.932 130.384 91.4829 130.384 92.0583C130.384 92.8235 130.488 93.5459 130.697 94.2253C130.911 94.8987 131.232 95.4435 131.661 95.8597C132.095 96.276 132.637 96.4841 133.286 96.4841ZM140.714 98.7246C140.396 98.7246 140.123 98.6144 139.897 98.394C139.676 98.1675 139.566 97.8921 139.566 97.5676C139.566 97.2554 139.676 96.9861 139.897 96.7596C140.123 96.5331 140.396 96.4199 140.714 96.4199C141.032 96.4199 141.305 96.5331 141.531 96.7596C141.758 96.9861 141.871 97.2554 141.871 97.5676C141.871 97.8921 141.758 98.1675 141.531 98.394C141.305 98.6144 141.032 98.7246 140.714 98.7246ZM148.53 98.7246C147.783 98.7246 147.103 98.5532 146.491 98.2104C145.879 97.8615 145.35 97.3809 144.903 96.7688C144.462 96.1566 144.122 95.4496 143.883 94.6477C143.645 93.8397 143.525 92.9766 143.525 92.0583C143.525 91.1401 143.645 90.2801 143.883 89.4782C144.122 88.6701 144.462 87.9601 144.903 87.3479C145.35 86.7358 145.879 86.2583 146.491 85.9155C147.103 85.5666 147.783 85.3921 148.53 85.3921C149.276 85.3921 149.956 85.5666 150.568 85.9155C151.18 86.2583 151.704 86.7358 152.138 87.3479C152.579 87.9601 152.919 88.6701 153.157 89.4782C153.402 90.2801 153.525 91.1401 153.525 92.0583C153.525 92.9766 153.402 93.8397 153.157 94.6477C152.919 95.4496 152.579 96.1566 152.138 96.7688C151.704 97.3809 151.18 97.8615 150.568 98.2104C149.956 98.5532 149.276 98.7246 148.53 98.7246ZM148.53 96.4841C149.185 96.4841 149.726 96.276 150.155 95.8597C150.583 95.4435 150.902 94.8987 151.11 94.2253C151.318 93.552 151.422 92.8296 151.422 92.0583C151.422 91.2442 151.312 90.5035 151.091 89.8363C150.871 89.1629 150.547 88.6273 150.118 88.2294C149.69 87.8315 149.16 87.6326 148.53 87.6326C148.034 87.6326 147.602 87.755 147.235 87.9998C146.874 88.2386 146.574 88.5661 146.335 88.9823C146.096 89.3986 145.919 89.873 145.803 90.4056C145.686 90.932 145.628 91.4829 145.628 92.0583C145.628 92.8235 145.732 93.5459 145.94 94.2253C146.155 94.8987 146.476 95.4435 146.904 95.8597C147.339 96.276 147.881 96.4841 148.53 96.4841ZM159.218 98.7246C158.471 98.7246 157.792 98.5532 157.18 98.2104C156.568 97.8615 156.038 97.3809 155.591 96.7688C155.151 96.1566 154.811 95.4496 154.572 94.6477C154.333 93.8397 154.214 92.9766 154.214 92.0583C154.214 91.1401 154.333 90.2801 154.572 89.4782C154.811 88.6701 155.151 87.9601 155.591 87.3479C156.038 86.7358 156.568 86.2583 157.18 85.9155C157.792 85.5666 158.471 85.3921 159.218 85.3921C159.965 85.3921 160.645 85.5666 161.257 85.9155C161.869 86.2583 162.392 86.7358 162.827 87.3479C163.268 87.9601 163.607 88.6701 163.846 89.4782C164.091 90.2801 164.213 91.1401 164.213 92.0583C164.213 92.9766 164.091 93.8397 163.846 94.6477C163.607 95.4496 163.268 96.1566 162.827 96.7688C162.392 97.3809 161.869 97.8615 161.257 98.2104C160.645 98.5532 159.965 98.7246 159.218 98.7246ZM159.218 96.4841C159.873 96.4841 160.415 96.276 160.843 95.8597C161.272 95.4435 161.59 94.8987 161.798 94.2253C162.007 93.552 162.111 92.8296 162.111 92.0583C162.111 91.2442 162 90.5035 161.78 89.8363C161.56 89.1629 161.235 88.6273 160.807 88.2294C160.378 87.8315 159.849 87.6326 159.218 87.6326C158.722 87.6326 158.291 87.755 157.924 87.9998C157.562 88.2386 157.262 88.5661 157.024 88.9823C156.785 89.3986 156.607 89.873 156.491 90.4056C156.375 90.932 156.317 91.4829 156.317 92.0583C156.317 92.8235 156.421 93.5459 156.629 94.2253C156.843 94.8987 157.165 95.4435 157.593 95.8597C158.028 96.276 158.569 96.4841 159.218 96.4841Z" fill="#2E68FD"/>
<path d="M74.8757 127.648V117.735H76.2041V127.648H74.8757ZM72.8475 118.935V117.735H76.0613V118.935H72.8475ZM79.3418 127.648V118.021H80.6273V127.648H79.3418ZM77.6707 122.034V120.863H82.2985V122.034H77.6707ZM88.357 127.648V123.691C88.357 123.177 88.1951 122.753 87.8713 122.42C87.5476 122.087 87.1286 121.92 86.6144 121.92C86.2716 121.92 85.9669 121.996 85.7003 122.149C85.4336 122.301 85.2242 122.51 85.0718 122.777C84.9194 123.044 84.8433 123.348 84.8433 123.691L84.3148 123.391C84.3148 122.877 84.4291 122.42 84.6576 122.02C84.8861 121.62 85.2051 121.306 85.6146 121.077C86.024 120.839 86.4858 120.72 87 120.72C87.5142 120.72 87.9666 120.835 88.357 121.063C88.7569 121.292 89.0711 121.611 89.2997 122.02C89.5282 122.43 89.6425 122.901 89.6425 123.434V127.648H88.357ZM83.5578 127.648V117.449H84.8433V127.648H83.5578ZM94.5825 127.648V117.735H95.5252L99.7245 124.634H99.0817L103.281 117.735H104.224V127.648H102.881V120.092L103.195 120.178L99.8816 125.619H98.9389L95.6252 120.178L95.9251 120.092V127.648H94.5825ZM109.221 127.791C108.602 127.791 108.04 127.638 107.536 127.333C107.031 127.019 106.631 126.596 106.336 126.062C106.05 125.529 105.907 124.929 105.907 124.263C105.907 123.596 106.05 122.996 106.336 122.463C106.631 121.93 107.026 121.506 107.521 121.192C108.026 120.877 108.593 120.72 109.221 120.72C109.735 120.72 110.192 120.83 110.592 121.049C111.002 121.258 111.33 121.553 111.578 121.934C111.825 122.306 111.963 122.739 111.992 123.234V125.277C111.963 125.762 111.825 126.196 111.578 126.576C111.34 126.957 111.016 127.257 110.606 127.476C110.207 127.686 109.745 127.791 109.221 127.791ZM109.435 126.576C110.073 126.576 110.587 126.362 110.978 125.934C111.368 125.496 111.563 124.939 111.563 124.263C111.563 123.796 111.473 123.391 111.292 123.048C111.121 122.696 110.873 122.425 110.549 122.234C110.226 122.034 109.849 121.934 109.421 121.934C108.992 121.934 108.612 122.034 108.278 122.234C107.955 122.434 107.697 122.71 107.507 123.063C107.326 123.406 107.236 123.801 107.236 124.248C107.236 124.705 107.326 125.11 107.507 125.462C107.697 125.805 107.959 126.077 108.293 126.277C108.626 126.476 109.007 126.576 109.435 126.576ZM111.478 127.648V125.819L111.721 124.163L111.478 122.52V120.863H112.778V127.648H111.478ZM116.877 127.705L113.935 120.863H115.363L117.549 126.219H117.092L119.391 120.863H120.82L117.649 127.705H116.877ZM114.935 130.49L116.934 126.391L117.649 127.705L116.363 130.49H114.935ZM121.081 129.219L121.967 127.519L122.424 127.405C122.376 127.51 122.314 127.595 122.238 127.662C122.171 127.729 122.086 127.762 121.981 127.762C121.781 127.762 121.595 127.681 121.424 127.519C121.262 127.348 121.181 127.138 121.181 126.891C121.181 126.615 121.272 126.386 121.452 126.205C121.633 126.015 121.862 125.919 122.138 125.919C122.386 125.919 122.605 126.015 122.795 126.205C122.986 126.386 123.081 126.615 123.081 126.891C123.081 126.995 123.057 127.124 123.009 127.276C122.971 127.419 122.89 127.605 122.766 127.833L121.824 129.619L121.081 129.219ZM127.443 126.834L131.099 122.977C131.471 122.596 131.761 122.268 131.971 121.992C132.18 121.706 132.328 121.444 132.413 121.206C132.509 120.968 132.556 120.72 132.556 120.463C132.556 119.959 132.394 119.563 132.071 119.278C131.747 118.992 131.328 118.849 130.814 118.849C130.309 118.849 129.866 118.973 129.485 119.221C129.104 119.459 128.766 119.83 128.471 120.335L127.529 119.549C127.919 118.902 128.39 118.416 128.943 118.092C129.495 117.759 130.133 117.592 130.857 117.592C131.466 117.592 131.994 117.711 132.442 117.949C132.899 118.187 133.251 118.521 133.499 118.949C133.747 119.378 133.87 119.878 133.87 120.449C133.87 120.858 133.818 121.225 133.713 121.549C133.618 121.872 133.442 122.206 133.185 122.549C132.937 122.882 132.59 123.282 132.142 123.748L129.185 126.791L127.443 126.834ZM127.443 127.648V126.834L128.585 126.448H134.099V127.648H127.443ZM139.412 127.791C138.67 127.791 137.989 127.581 137.37 127.162C136.761 126.743 136.275 126.153 135.913 125.391C135.551 124.62 135.37 123.715 135.37 122.677C135.37 121.639 135.546 120.739 135.899 119.978C136.261 119.216 136.746 118.63 137.356 118.221C137.965 117.802 138.636 117.592 139.37 117.592C140.122 117.592 140.803 117.802 141.412 118.221C142.022 118.63 142.502 119.216 142.855 119.978C143.217 120.739 143.398 121.644 143.398 122.691C143.398 123.729 143.217 124.634 142.855 125.405C142.502 126.167 142.022 126.757 141.412 127.176C140.812 127.586 140.146 127.791 139.412 127.791ZM139.384 126.519C139.908 126.519 140.365 126.376 140.755 126.091C141.155 125.796 141.469 125.362 141.698 124.791C141.926 124.22 142.041 123.515 142.041 122.677C142.041 121.839 141.926 121.139 141.698 120.577C141.469 120.006 141.155 119.578 140.755 119.292C140.355 118.997 139.893 118.849 139.37 118.849C138.855 118.849 138.398 118.997 137.998 119.292C137.598 119.578 137.284 120.006 137.056 120.577C136.837 121.139 136.727 121.839 136.727 122.677C136.727 123.515 136.837 124.22 137.056 124.791C137.284 125.362 137.598 125.796 137.998 126.091C138.398 126.376 138.86 126.519 139.384 126.519ZM144.516 126.834L148.172 122.977C148.544 122.596 148.834 122.268 149.044 121.992C149.253 121.706 149.401 121.444 149.486 121.206C149.582 120.968 149.629 120.72 149.629 120.463C149.629 119.959 149.467 119.563 149.144 119.278C148.82 118.992 148.401 118.849 147.887 118.849C147.382 118.849 146.939 118.973 146.558 119.221C146.177 119.459 145.839 119.83 145.544 120.335L144.602 119.549C144.992 118.902 145.463 118.416 146.016 118.092C146.568 117.759 147.206 117.592 147.93 117.592C148.539 117.592 149.067 117.711 149.515 117.949C149.972 118.187 150.324 118.521 150.572 118.949C150.82 119.378 150.943 119.878 150.943 120.449C150.943 120.858 150.891 121.225 150.786 121.549C150.691 121.872 150.515 122.206 150.258 122.549C150.01 122.882 149.663 123.282 149.215 123.748L146.258 126.791L144.516 126.834ZM144.516 127.648V126.834L145.659 126.448H151.172V127.648H144.516ZM155.314 127.791C154.638 127.791 154.034 127.672 153.5 127.433C152.977 127.186 152.534 126.829 152.172 126.362L153.086 125.448C153.305 125.781 153.605 126.048 153.986 126.248C154.376 126.438 154.81 126.534 155.286 126.534C155.733 126.534 156.124 126.448 156.457 126.277C156.8 126.105 157.066 125.867 157.257 125.562C157.457 125.248 157.557 124.877 157.557 124.448C157.557 124.01 157.462 123.639 157.271 123.334C157.081 123.029 156.824 122.801 156.5 122.649C156.186 122.487 155.838 122.406 155.457 122.406C155.067 122.406 154.71 122.453 154.386 122.549C154.072 122.644 153.772 122.806 153.486 123.034L153.5 122.177C153.662 121.977 153.848 121.815 154.057 121.692C154.267 121.568 154.505 121.473 154.772 121.406C155.038 121.339 155.348 121.306 155.7 121.306C156.386 121.306 156.966 121.449 157.442 121.734C157.919 122.02 158.28 122.406 158.528 122.891C158.785 123.377 158.914 123.92 158.914 124.52C158.914 125.148 158.757 125.71 158.442 126.205C158.138 126.7 157.714 127.091 157.171 127.376C156.628 127.652 156.009 127.791 155.314 127.791ZM153.486 123.034L152.758 122.306L153.2 117.735H154.429L153.929 122.434L153.486 123.034ZM153.472 118.935L153.2 117.735H158.414V118.935H153.472Z" fill="#4D525F"/>
<path d="M188.418 127.791C187.771 127.791 187.18 127.672 186.647 127.433C186.124 127.186 185.681 126.829 185.319 126.362L186.233 125.448C186.452 125.781 186.752 126.048 187.133 126.248C187.514 126.438 187.937 126.534 188.404 126.534C188.842 126.534 189.218 126.453 189.532 126.291C189.856 126.119 190.109 125.881 190.289 125.577C190.48 125.272 190.575 124.92 190.575 124.52C190.575 124.11 190.48 123.758 190.289 123.463C190.109 123.158 189.851 122.925 189.518 122.763C189.185 122.601 188.79 122.52 188.333 122.52C188.161 122.52 187.99 122.534 187.818 122.563C187.647 122.582 187.48 122.615 187.319 122.663L187.89 121.892C188.071 121.806 188.266 121.739 188.475 121.692C188.685 121.644 188.894 121.62 189.104 121.62C189.637 121.62 190.113 121.744 190.532 121.992C190.961 122.239 191.299 122.587 191.546 123.034C191.804 123.482 191.932 124.001 191.932 124.591C191.932 125.22 191.78 125.777 191.475 126.262C191.18 126.738 190.77 127.114 190.247 127.391C189.723 127.657 189.113 127.791 188.418 127.791ZM187.319 122.663V121.849L190.218 118.549L191.818 118.535L188.833 121.92L187.319 122.663ZM185.79 118.935V117.735H191.818V118.535L190.647 118.935H185.79ZM194.243 127.791C193.976 127.791 193.752 127.7 193.571 127.519C193.4 127.329 193.314 127.105 193.314 126.848C193.314 126.581 193.4 126.362 193.571 126.191C193.752 126.01 193.976 125.919 194.243 125.919C194.509 125.919 194.728 126.01 194.9 126.191C195.081 126.362 195.171 126.581 195.171 126.848C195.171 127.105 195.081 127.329 194.9 127.519C194.728 127.7 194.509 127.791 194.243 127.791ZM200.637 127.791C199.894 127.791 199.214 127.581 198.595 127.162C197.985 126.743 197.5 126.153 197.138 125.391C196.776 124.62 196.595 123.715 196.595 122.677C196.595 121.639 196.771 120.739 197.123 119.978C197.485 119.216 197.971 118.63 198.58 118.221C199.19 117.802 199.861 117.592 200.594 117.592C201.347 117.592 202.027 117.802 202.637 118.221C203.246 118.63 203.727 119.216 204.079 119.978C204.441 120.739 204.622 121.644 204.622 122.691C204.622 123.729 204.441 124.634 204.079 125.405C203.727 126.167 203.246 126.757 202.637 127.176C202.037 127.586 201.37 127.791 200.637 127.791ZM200.609 126.519C201.132 126.519 201.589 126.376 201.98 126.091C202.38 125.796 202.694 125.362 202.923 124.791C203.151 124.22 203.265 123.515 203.265 122.677C203.265 121.839 203.151 121.139 202.923 120.577C202.694 120.006 202.38 119.578 201.98 119.292C201.58 118.997 201.118 118.849 200.594 118.849C200.08 118.849 199.623 118.997 199.223 119.292C198.823 119.578 198.509 120.006 198.28 120.577C198.061 121.139 197.952 121.839 197.952 122.677C197.952 123.515 198.061 124.22 198.28 124.791C198.509 125.362 198.823 125.796 199.223 126.091C199.623 126.376 200.085 126.519 200.609 126.519ZM207.397 127.648L210.382 123.577L210.868 123.32C210.753 123.51 210.615 123.677 210.453 123.82C210.292 123.963 210.092 124.072 209.854 124.148C209.625 124.224 209.344 124.263 209.011 124.263C208.439 124.263 207.911 124.124 207.425 123.848C206.949 123.572 206.568 123.191 206.283 122.706C205.997 122.211 205.854 121.653 205.854 121.035C205.854 120.397 206.011 119.82 206.326 119.306C206.64 118.783 207.059 118.368 207.582 118.064C208.106 117.749 208.687 117.592 209.325 117.592C209.973 117.592 210.558 117.745 211.082 118.049C211.606 118.354 212.02 118.763 212.325 119.278C212.629 119.782 212.782 120.354 212.782 120.992C212.782 121.868 212.477 122.739 211.867 123.606L208.954 127.648H207.397ZM209.325 123.206C209.725 123.206 210.082 123.11 210.396 122.92C210.72 122.72 210.972 122.458 211.153 122.134C211.344 121.801 211.439 121.434 211.439 121.035C211.439 120.616 211.344 120.244 211.153 119.92C210.972 119.587 210.72 119.325 210.396 119.135C210.082 118.944 209.725 118.849 209.325 118.849C208.925 118.849 208.563 118.944 208.239 119.135C207.925 119.325 207.673 119.587 207.482 119.92C207.292 120.244 207.197 120.616 207.197 121.035C207.197 121.444 207.292 121.811 207.482 122.134C207.673 122.458 207.93 122.72 208.254 122.92C208.578 123.11 208.935 123.206 209.325 123.206ZM214.245 127.648L220.601 117.735H221.901L215.545 127.648H214.245ZM220.058 127.791C219.687 127.791 219.349 127.7 219.044 127.519C218.739 127.338 218.497 127.1 218.316 126.805C218.135 126.5 218.044 126.157 218.044 125.777C218.044 125.405 218.135 125.072 218.316 124.777C218.497 124.472 218.739 124.229 219.044 124.048C219.349 123.867 219.687 123.777 220.058 123.777C220.43 123.777 220.768 123.867 221.072 124.048C221.387 124.229 221.634 124.472 221.815 124.777C221.996 125.072 222.086 125.405 222.086 125.777C222.086 126.157 221.996 126.5 221.815 126.805C221.634 127.1 221.391 127.338 221.087 127.519C220.782 127.7 220.439 127.791 220.058 127.791ZM220.058 126.776C220.344 126.776 220.577 126.686 220.758 126.505C220.939 126.315 221.03 126.072 221.03 125.777C221.03 125.491 220.934 125.258 220.744 125.077C220.563 124.886 220.334 124.791 220.058 124.791C219.782 124.791 219.554 124.886 219.373 125.077C219.192 125.258 219.101 125.491 219.101 125.777C219.101 126.072 219.192 126.315 219.373 126.505C219.554 126.686 219.782 126.776 220.058 126.776ZM216.073 121.606C215.711 121.606 215.378 121.515 215.073 121.334C214.769 121.154 214.526 120.911 214.345 120.606C214.164 120.301 214.074 119.963 214.074 119.592C214.074 119.211 214.159 118.873 214.331 118.578C214.512 118.283 214.754 118.045 215.059 117.864C215.364 117.683 215.702 117.592 216.073 117.592C216.454 117.592 216.797 117.683 217.102 117.864C217.406 118.045 217.649 118.283 217.83 118.578C218.011 118.873 218.101 119.211 218.101 119.592C218.101 119.963 218.011 120.301 217.83 120.606C217.649 120.911 217.406 121.154 217.102 121.334C216.806 121.515 216.464 121.606 216.073 121.606ZM216.073 120.592C216.359 120.592 216.592 120.501 216.773 120.32C216.954 120.13 217.044 119.887 217.044 119.592C217.044 119.297 216.949 119.059 216.759 118.878C216.578 118.697 216.349 118.606 216.073 118.606C215.797 118.606 215.569 118.697 215.388 118.878C215.216 119.059 215.131 119.297 215.131 119.592C215.131 119.887 215.216 120.13 215.388 120.32C215.569 120.501 215.797 120.592 216.073 120.592Z" fill="#37C390"/>
<path d="M237.805 118.693H241.01V121.898" stroke="#08A965" stroke-width="1.02024" stroke-linecap="round" stroke-linejoin="round"/>
<path d="M241.01 118.693L235.935 123.768L233.264 121.097L229.257 125.104" stroke="#08A965" stroke-width="1.02024" stroke-linecap="round" stroke-linejoin="round"/>
</g>
<defs>
<filter id="filter0_dd_83_3381" x="0.988132" y="0.271456" width="283.117" height="203.793" filterUnits="userSpaceOnUse" color-interpolation-filters="sRGB">
<feFlood flood-opacity="0" result="BackgroundImageFix"/>
<feColorMatrix in="SourceAlpha" type="matrix" values="0 0 0 0 0 0 0 0 0 0 0 0 0 0 0 0 0 0 127 0" result="hardAlpha"/>
<feOffset dx="-20.4047" dy="20.4047"/>
<feGaussianBlur stdDeviation="15.3036"/>
<feComposite in2="hardAlpha" operator="out"/>
<feColorMatrix type="matrix" values="0 0 0 0 0.180392 0 0 0 0 0.407843 0 0 0 0 0.992157 0 0 0 0.08 0"/>
<feBlend mode="normal" in2="BackgroundImageFix" result="effect1_dropShadow_83_3381"/>
<feColorMatrix in="SourceAlpha" type="matrix" values="0 0 0 0 0 0 0 0 0 0 0 0 0 0 0 0 0 0 127 0" result="hardAlpha"/>
<feOffset dy="-16.3238"/>
<feGaussianBlur stdDeviation="10.2024"/>
<feComposite in2="hardAlpha" operator="out"/>
<feColorMatrix type="matrix" values="0 0 0 0 0.180392 0 0 0 0 0.407843 0 0 0 0 0.992157 0 0 0 0.04 0"/>
<feBlend mode="normal" in2="effect1_dropShadow_83_3381" result="effect2_dropShadow_83_3381"/>
<feBlend mode="normal" in="SourceGraphic" in2="effect2_dropShadow_83_3381" result="shape"/>
</filter>
</defs>
</svg>
